<?xml version="1.0" encoding="UTF-8" standalone="no" ?>
<!DOCTYPE svg PUBLIC "-//W3C//DTD SVG 1.1//EN" "http://www.w3.org/Graphics/SVG/1.1/DTD/svg11.dtd">
<svg xmlns="http://www.w3.org/2000/svg" xmlns:xlink="http://www.w3.org/1999/xlink" version="1.1" width="1080" height="1080" viewBox="0 0 1080 1080" xml:space="preserve">
<desc>Created with Fabric.js 4.2.0</desc>
<defs>
</defs>
<rect x="0" y="0" width="100%" height="100%" fill="transparent"></rect>
<g transform="matrix(Infinity NaN NaN Infinity 0 0)" id="a5fab3b7-76e5-4681-a934-062f8762bd70"  >
</g>
<g transform="matrix(1 0 0 1 540 540)" id="ae886b0b-052b-419d-9980-903887ce7566"  >
<rect style="stroke: none; stroke-width: 1; stroke-dasharray: none; stroke-linecap: butt; stroke-dashoffset: 0; stroke-linejoin: miter; stroke-miterlimit: 4; fill: rgb(255,255,255); fill-rule: nonzero; opacity: 1;" vector-effect="non-scaling-stroke"  x="-540" y="-540" rx="0" ry="0" width="1080" height="1080" />
</g>
<g transform="matrix(1 0 0 1 540 540)"  >
<g style="" vector-effect="non-scaling-stroke"   >
		<g transform="matrix(1.17 0 0 1.17 83.54 -107.59)"  >
<path style="stroke: none; stroke-width: 1; stroke-dasharray: none; stroke-linecap: butt; stroke-dashoffset: 0; stroke-linejoin: miter; stroke-miterlimit: 4; fill: rgb(158,219,211); fill-rule: evenodd; opacity: 1;" vector-effect="non-scaling-stroke"  transform=" translate(-255, -118)" d="M 150 118 C 150 175.9896 197.0104 223 255 223 C 312.9896 223 360 175.9896 360 118 C 360 60.0104 312.9896 13 255 13 C 197.0104 13 150 60.0104 150 118" stroke-linecap="round" />
</g>
		<g transform="matrix(1.17 0 0 1.17 114.41 -178.95)"  >
<path style="stroke: none; stroke-width: 1; stroke-dasharray: none; stroke-linecap: butt; stroke-dashoffset: 0; stroke-linejoin: miter; stroke-miterlimit: 4; fill: rgb(255,112,129); fill-rule: evenodd; opacity: 1;" vector-effect="non-scaling-stroke"  transform=" translate(-281, -57)" d="M 264.561277 17.0033716 C 267.866818 16.0644258 271.401029 15.6543952 274.77263 16.3458669 C 278.14169 17.0373387 281.330356 18.9249352 283.035212 21.7878707 C 284.983982 25.0559845 284.798506 29.0543894 284.559674 32.8077465 C 283.957511 42.211762 283.355349 51.6157775 282.755728 61.0173668 C 282.588037 63.6255496 282.440672 66.3429122 283.500173 68.7545715 C 284.562215 71.1638045 287.2224 73.1460235 289.905453 72.6171083 C 291.269846 72.3477982 292.420815 71.4913438 293.716607 70.9915432 C 295.009859 70.4941688 296.735041 70.474759 297.545547 71.5568516 C 298.028293 72.199799 298.048619 73.0586797 297.957151 73.8472001 C 297.560791 77.3239684 295.307129 80.5605414 292.103218 82.2564668 C 293.988469 81.385455 296.351385 83.2026912 296.381874 85.1970413 C 296.414904 87.1962437 294.727833 88.9212837 292.784145 89.6661322 C 290.842997 90.4085545 288.685883 90.3818661 286.59483 90.3430467 C 288.317472 90.369735 289.646294 92.1287421 289.476063 93.7664383 C 289.305831 95.4017082 287.954142 96.7676682 286.366161 97.4081894 C 284.780721 98.0487105 282.99456 98.0753989 281.27954 97.9225473 C 277.633536 97.5998605 273.995154 96.4813746 271.121544 94.312337 C 266.103524 90.5225867 264.070909 84.0542933 264.002308 77.9450799 C 263.931166 71.8358665 265.521688 65.8334067 266.416039 59.7848487 C 268.486766 45.7491858 266.792073 31.4854584 265.09738 17.4061236 C 265.511525 17.287239 265.920589 17.1683544 266.332194 17.0494697" stroke-linecap="round" />
</g>
		<g transform="matrix(1.17 0 0 1.17 125 30.71)"  >
<path style="stroke: none; stroke-width: 1; stroke-dasharray: none; stroke-linecap: butt; stroke-dashoffset: 0; stroke-linejoin: miter; stroke-miterlimit: 4; fill: rgb(124,171,255); fill-rule: evenodd; opacity: 1;" vector-effect="non-scaling-stroke"  transform=" translate(-290, -235.5)" d="M 282.976808 228.753807 C 278.903402 232.573005 277.355456 238.518197 281.239582 243.104271 C 284.898128 247.424595 291.976675 248.340798 296.54532 244.89618 C 307.578001 236.587085 296.078602 221.252084 284.174716 224.42589 C 281.970773 225.013069 282.520462 228.080576 284.698476 228.202061 C 288.178114 228.394413 291.904075 228.523491 294.686229 230.905111 C 297.670627 233.463898 297.738042 237.789284 295.287776 240.730243 C 288.800404 248.517964 277.529179 237.050248 284.343253 230.087616 C 285.204087 229.209378 283.876535 227.911002 282.976808 228.753807" stroke-linecap="round" />
</g>
		<g transform="matrix(1.17 0 0 1.17 -22.91 -42.68)"  >
<path style="stroke: none; stroke-width: 1; stroke-dasharray: none; stroke-linecap: butt; stroke-dashoffset: 0; stroke-linejoin: miter; stroke-miterlimit: 4; fill: rgb(35,129,116); fill-rule: evenodd; opacity: 1;" vector-effect="non-scaling-stroke"  transform=" translate(-164, -173)" d="M 164.336516 188.031706 C 162.953577 186.448881 161.426534 185.234796 160.733902 183.117674 C 159.350963 178.898479 161.991331 176.803932 165.091903 175.233649 C 168.248257 173.633265 170.795654 171.769495 171.732333 167.919041 C 173.196622 161.903804 168.452793 154.486349 162.38878 156.269849 C 160.42245 156.849299 161.008166 159.550888 162.351592 160.388706 C 164.227275 161.557639 166.742132 162.227392 167.058233 165.016777 C 167.481249 168.746826 164.071549 169.812912 161.689176 171.157436 C 159.113888 172.61233 157.170801 174.827282 156.350335 177.882561 C 154.944153 183.145266 157.85646 190.29181 163.553238 189.990797 C 164.357434 189.948153 164.917583 188.696442 164.336516 188.031706" stroke-linecap="round" />
</g>
		<g transform="matrix(1.17 0 0 1.17 -30.55 50.08)"  >
<path style="stroke: none; stroke-width: 1; stroke-dasharray: none; stroke-linecap: butt; stroke-dashoffset: 0; stroke-linejoin: miter; stroke-miterlimit: 4; fill: rgb(251,197,128); fill-rule: evenodd; opacity: 1;" vector-effect="non-scaling-stroke"  transform=" translate(-157.5, -252)" d="M 146.011126 252.067404 C 146.551526 255.532237 150.197963 262.863227 154.036318 263.875257 C 156.079232 264.41617 157.596897 263.087569 159.185269 262.008236 C 162.071611 260.046492 164.920075 258.039879 167.773589 256.03576 C 168.81146 255.305403 169.425092 253.899528 168.65237 252.725473 C 166.127137 248.891722 163.604428 245.055478 161.079195 241.219234 C 160.404957 240.197233 158.849413 239.566583 157.72821 240.354272 C 154.579243 242.552821 151.167653 244.579375 148.32929 247.159305 C 146.374759 248.93659 148.86464 251.843062 151.08432 250.683963 C 154.303993 249.0014 157.225688 246.608421 160.200413 244.532014 C 159.081735 244.24037 157.965582 243.951218 156.849428 243.662066 C 159.372137 247.49831 161.89737 251.332061 164.420079 255.165812 C 164.713006 254.064045 165.005933 252.959785 165.29886 251.858018 C 163.586752 253.059493 161.869593 254.258475 160.162535 255.467427 C 159.19537 256.152916 155.958021 259.146632 154.882271 259.026983 C 153.917632 258.919798 151.897445 255.532237 151.304015 254.834285 C 150.091903 253.413454 148.955548 252.069896 147.392428 251.017983 C 146.639909 250.509475 145.900015 251.347017 146.011126 252.067404" stroke-linecap="round" />
</g>
		<g transform="matrix(1.17 0 0 1.17 166.67 -133.05)"  >
<path style="stroke: none; stroke-width: 1; stroke-dasharray: none; stroke-linecap: butt; stroke-dashoffset: 0; stroke-linejoin: miter; stroke-miterlimit: 4; fill: rgb(251,197,128); fill-rule: evenodd; opacity: 1;" vector-effect="non-scaling-stroke"  transform=" translate(-325.5, -96)" d="M 314.011607 96.0660701 C 314.551995 99.5308599 318.198357 106.86425 322.036631 107.876267 C 324.079503 108.414681 325.597136 107.086096 327.185475 106.006776 C 330.069231 104.04755 332.92016 102.03847 335.773615 100.034376 C 336.811464 99.3040283 337.425083 97.9006638 336.652378 96.7241309 C 334.127197 92.8904282 331.604541 89.0542329 329.07936 85.2205302 C 328.405137 84.1960492 326.849626 83.5679002 325.728446 84.3530864 C 322.579545 86.5516077 319.168026 88.5781359 316.329723 91.160526 C 314.375233 92.9377887 316.862536 95.8442238 319.084695 94.6826468 C 322.3043 93.000105 325.225935 90.6071567 328.200598 88.5307754 C 327.081942 88.2391348 325.965813 87.9524796 324.849683 87.660839 C 327.372338 91.4970343 329.897519 95.330737 332.420175 99.1669323 C 332.713096 98.0626864 333.006017 96.9584404 333.298938 95.8566871 C 331.586865 97.0606393 329.869742 98.2571134 328.16272 99.4660509 C 327.195576 100.151531 323.958294 103.145209 322.882567 103.025562 C 321.917948 102.918377 319.895278 99.5308599 319.304386 98.8354093 C 318.092299 97.4121035 316.958493 96.0685627 315.392881 95.0191552 C 314.637852 94.508161 313.897974 95.3456929 314.011607 96.0660701" stroke-linecap="round" />
</g>
		<g transform="matrix(1.17 0 0 1.17 161.38 -45.01)"  >
<path style="stroke: none; stroke-width: 1; stroke-dasharray: none; stroke-linecap: butt; stroke-dashoffset: 0; stroke-linejoin: miter; stroke-miterlimit: 4; fill: rgb(255,112,129); fill-rule: evenodd; opacity: 1;" vector-effect="non-scaling-stroke"  transform=" translate(-321, -171)" d="M 328.888244 157.116692 C 322.615778 160.155437 316.447089 163.365238 310.29288 166.655535 C 308.811043 167.447923 308.576942 169.080494 309.725728 170.318128 C 314.236401 175.180624 318.686738 180.058213 323.532876 184.558474 C 324.466868 185.426327 325.972839 184.928255 326.460349 183.816396 C 329.469877 176.971672 334.038472 167.639102 332.788323 159.871184 C 332.469752 157.896503 329.576068 156.998463 328.801361 159.199541 C 327.589827 162.6458 327.597067 166.509635 326.819947 170.096763 C 325.922157 174.234789 324.754064 178.382878 322.985031 182.214011 L 326.262449 181.856808 C 321.843485 176.644655 317.06251 171.845048 312.286361 166.992614 C 312.259814 168.122082 312.230853 169.254065 312.201892 170.383532 C 318.23543 166.854261 324.213459 163.269648 330.109432 159.496372 C 331.352341 158.701468 330.22769 156.467689 328.888244 157.116692" stroke-linecap="round" />
</g>
		<g transform="matrix(1.17 0 0 1.17 37.55 31.89)"  >
<path style="stroke: none; stroke-width: 1; stroke-dasharray: none; stroke-linecap: butt; stroke-dashoffset: 0; stroke-linejoin: miter; stroke-miterlimit: 4; fill: rgb(255,112,129); fill-rule: evenodd; opacity: 1;" vector-effect="non-scaling-stroke"  transform=" translate(-215.5, -236.5)" d="M 210.195867 246.572705 C 214.687598 241.202507 219.231753 235.219964 222.741737 229.047823 C 223.849776 227.100614 221.118995 224.874134 219.722626 226.647119 C 215.366719 232.176168 211.504069 238.678822 208.163269 244.958571 C 207.455554 246.290872 209.218886 247.738468 210.195867 246.572705" stroke-linecap="round" />
</g>
		<g transform="matrix(1.17 0 0 1.17 210.72 -169.41)"  >
<path style="stroke: none; stroke-width: 1; stroke-dasharray: none; stroke-linecap: butt; stroke-dashoffset: 0; stroke-linejoin: miter; stroke-miterlimit: 4; fill: rgb(36,19,82); fill-rule: evenodd; opacity: 1;" vector-effect="non-scaling-stroke"  transform=" translate(-363, -65)" d="M 365.882019 62.401019 L 365.539024 62.0992184 C 364.031276 60.7684442 361.558854 60.5046658 360.091598 62.0992184 C 358.610051 63.7104058 358.662453 65.9228179 360.091598 67.5340053 C 360.19402 67.6480716 360.29406 67.7597616 360.396483 67.8762043 C 361.744643 69.3970892 364.524331 69.3519379 365.882019 67.8762043 C 367.232561 66.4075999 367.506481 63.8339777 365.882019 62.401019" stroke-linecap="round" />
</g>
		<g transform="matrix(1.17 0 0 1.17 -2.93 6.68)"  >
<path style="stroke: none; stroke-width: 1; stroke-dasharray: none; stroke-linecap: butt; stroke-dashoffset: 0; stroke-linejoin: miter; stroke-miterlimit: 4; fill: rgb(36,19,82); fill-rule: evenodd; opacity: 1;" vector-effect="non-scaling-stroke"  transform=" translate(-181, -215)" d="M 183.882019 212.401981 C 183.767687 212.302165 183.653356 212.199973 183.539024 212.100156 C 182.031276 210.766899 179.558854 210.505476 178.091598 212.100156 C 176.610051 213.711473 176.662453 215.921686 178.091598 217.53538 C 178.19402 217.649455 178.29406 217.761154 178.394101 217.87523 C 179.744643 219.396236 182.524331 219.353458 183.882019 217.87523 C 185.232561 216.408884 185.506481 213.835055 183.882019 212.401981" stroke-linecap="round" />
</g>
		<g transform="matrix(1.17 0 0 1.17 10.4 -119.03)"  >
<path style="stroke: none; stroke-width: 1; stroke-dasharray: none; stroke-linecap: butt; stroke-dashoffset: 0; stroke-linejoin: miter; stroke-miterlimit: 4; fill: rgb(255,175,167); fill-rule: evenodd; opacity: 1;" vector-effect="non-scaling-stroke"  transform=" translate(-192.5, -108)" d="M 239 85.7453773 L 168.47857 112.360099 L 175.209276 83.690361 L 156.868913 79 C 156.868913 79 137.140981 135.045669 150.841973 136.542967 C 174.827445 139.170775 211.12135 129.609171 211.12135 129.609171 L 239 85.7453773 Z" stroke-linecap="round" />
</g>
		<g transform="matrix(1.17 0 0 1.17 83.79 -74.56)"  >
<path style="stroke: none; stroke-width: 1; stroke-dasharray: none; stroke-linecap: butt; stroke-dashoffset: 0; stroke-linejoin: miter; stroke-miterlimit: 4; fill: rgb(36,19,82); fill-rule: evenodd; opacity: 1;" vector-effect="non-scaling-stroke"  transform=" translate(-255, -146)" d="M 214 146.939127 L 214.154644 201.604618 C 231.936292 223.733514 293.839816 195.117845 293.839816 195.117845 L 294.562294 172.761472 L 296 119.507319 C 294.574375 98.3005627 275.115806 87.8904178 275.115806 87.8904178 C 267.074316 83.8349619 254.806695 81.5283908 243.754479 82.0811852 C 232.216584 82.6584394 229.365335 88.2524247 224.612447 98.9096149 C 220.772926 107.521955 214 115.598623 214 146.939127" stroke-linecap="round" />
</g>
		<g transform="matrix(1.17 0 0 1.17 82.09 -195.93)"  >
<path style="stroke: none; stroke-width: 1; stroke-dasharray: none; stroke-linecap: butt; stroke-dashoffset: 0; stroke-linejoin: miter; stroke-miterlimit: 4; fill: rgb(255,175,167); fill-rule: evenodd; opacity: 1;" vector-effect="non-scaling-stroke"  transform=" translate(-253.5, -42.5)" d="M 271.701021 31.3070066 L 270.870853 42.2577468 C 270.870853 42.2577468 280.176573 43.5147908 277.524443 52.0078016 C 274.872313 60.5008125 268.505241 56.7835888 268.505241 56.7835888 C 268.505241 56.7835888 266.913473 78.5502983 244.633621 71.6475829 C 226.898878 66.1562854 227.983729 43.179089 230.234244 23.5907657 C 231.108492 16.0019444 238.281243 10.7850892 245.774796 12.2455146 L 259.170135 14.8576178 C 266.911024 16.3646004 272.298547 23.4363918 271.701021 31.3070066" stroke-linecap="round" />
</g>
		<g transform="matrix(1.17 0 0 1.17 85.06 -160.68)"  >
<path style="stroke: none; stroke-width: 1; stroke-dasharray: none; stroke-linecap: butt; stroke-dashoffset: 0; stroke-linejoin: miter; stroke-miterlimit: 4; fill: rgb(255,175,167); fill-rule: evenodd; opacity: 1;" vector-effect="non-scaling-stroke"  transform=" translate(-256, -72.5)" d="M 272 51 L 265.896513 83.3954245 C 264.521922 90.6957321 257.287883 95.3643605 250.028942 93.6421223 C 243.302905 92.0437862 238.994855 85.5042371 240.202603 78.7292741 L 243.517063 60.161316 L 272 51 Z" stroke-linecap="round" />
</g>
		<g transform="matrix(1.17 0 0 1.17 72.21 -195.85)"  >
<path style="stroke: none; stroke-width: 1; stroke-dasharray: none; stroke-linecap: butt; stroke-dashoffset: 0; stroke-linejoin: miter; stroke-miterlimit: 4; fill: rgb(36,19,82); fill-rule: evenodd; opacity: 1;" vector-effect="non-scaling-stroke"  transform=" translate(-245, -42.5)" d="M 245.979035 52.0800527 C 246.009749 52.0724839 246.069559 52.5594084 245.620173 52.9151408 C 245.151389 53.2532127 244.399719 52.5467938 244.205739 51.4064318 C 243.956799 50.3140053 243.989129 48.9970386 244.023075 47.6598884 C 244.069954 46.2041608 244.116832 44.7660937 244.166943 43.2573847 C 244.4175 37.0156688 244.808692 31.974865 245.039851 32 C 245.272627 32.0202777 245.256462 37.0989253 245.005905 43.3406412 C 244.934779 44.8443044 244.866886 46.2823715 244.797377 47.7355762 C 244.716552 49.0878639 244.642193 50.2559781 244.776362 51.1440476 C 244.873352 52.0396859 245.272627 52.4635372 245.534499 52.4206475 C 245.802837 52.3727119 245.922458 52.0169796 245.979035 52.0800527" stroke-linecap="round" />
</g>
		<g transform="matrix(1.17 0 0 1.17 79.22 -162.36)"  >
<path style="stroke: none; stroke-width: 1; stroke-dasharray: none; stroke-linecap: butt; stroke-dashoffset: 0; stroke-linejoin: miter; stroke-miterlimit: 4; fill: rgb(36,19,82); fill-rule: evenodd; opacity: 1;" vector-effect="non-scaling-stroke"  transform=" translate(-251, -71)" d="M 240.007599 69.0239434 C 240.190328 68.7027075 244.555507 71.7182526 250.938314 71.8200527 C 257.321121 71.9603106 261.825885 69.1099079 261.993386 69.4379304 C 262.089826 69.5510416 261.130502 70.4174736 259.189012 71.3178389 C 257.267825 72.2182042 254.288336 73.0620139 250.910397 72.9964094 C 247.532459 72.9353294 244.598652 71.9806707 242.720609 71.0079142 C 240.822263 70.0351577 239.906083 69.1347923 240.007599 69.0239434" stroke-linecap="round" />
</g>
		<g transform="matrix(1.17 0 0 1.17 76.3 -179.39)"  >
<path style="stroke: none; stroke-width: 1; stroke-dasharray: none; stroke-linecap: butt; stroke-dashoffset: 0; stroke-linejoin: miter; stroke-miterlimit: 4; fill: rgb(36,19,82); fill-rule: evenodd; opacity: 1;" vector-effect="non-scaling-stroke"  transform=" translate(-248.5, -56.5)" d="M 244.026699 56.736861 C 244.169362 56.6194814 244.663927 57.0429686 245.567459 57.4089168 C 246.451969 57.7794681 247.828666 58.0464492 249.176831 57.6321682 C 250.524996 57.2063794 251.480838 56.2144067 251.975403 55.4134635 C 252.491367 54.6079172 252.638785 53.9841942 252.826625 54.0003052 C 252.974043 54.0003052 253.15475 54.7045828 252.767182 55.7771102 C 252.403392 56.8197172 251.335797 58.2075584 249.557266 58.7737424 C 247.769224 59.3169107 246.064401 58.7921549 245.141848 58.1477178 C 244.183628 57.4963761 243.905435 56.8220188 244.026699 56.736861" stroke-linecap="round" />
</g>
		<g transform="matrix(1.17 0 0 1.17 105.07 -187.6)"  >
<path style="stroke: none; stroke-width: 1; stroke-dasharray: none; stroke-linecap: butt; stroke-dashoffset: 0; stroke-linejoin: miter; stroke-miterlimit: 4; fill: rgb(36,19,82); fill-rule: evenodd; opacity: 1;" vector-effect="non-scaling-stroke"  transform=" translate(-273, -49.5)" d="M 272.025942 51.7821978 C 272.016214 51.6204314 272.384272 51.5237917 272.771788 51.1918553 C 272.964734 51.0195845 273.120389 50.7905905 273.173895 50.4817636 C 273.22578 50.1603316 273.154439 49.9187324 272.997163 49.8557065 C 272.852858 49.7842771 272.732874 49.8494039 272.71666 49.8809168 L 272 49.3977184 C 272.564248 47.9145091 273.08634 46.9060949 273.261451 47.0069363 C 273.436563 47.1056769 273.207945 48.2863619 272.73936 49.8220927 L 272.024321 49.3388942 C 272.295095 48.7422491 272.880422 48.6119956 273.297122 48.8325862 C 273.605188 48.9628397 273.880827 49.3704071 273.950547 49.7443607 C 274.038103 50.1288187 273.999189 50.4964697 273.913255 50.7968931 C 273.738143 51.4145468 273.332793 51.7695926 273.027969 51.8914427 C 272.385894 52.1351428 272.025942 51.9103504 272.025942 51.7821978" stroke-linecap="round" />
</g>
		<g transform="matrix(1.17 0 0 1.17 88.63 -208.14)"  >
<path style="stroke: none; stroke-width: 1; stroke-dasharray: none; stroke-linecap: butt; stroke-dashoffset: 0; stroke-linejoin: miter; stroke-miterlimit: 4; fill: rgb(36,19,82); fill-rule: evenodd; opacity: 1;" vector-effect="non-scaling-stroke"  transform=" translate(-259, -32)" d="M 257.008943 31.7842404 C 256.892546 31.5242404 257.927183 30.9762404 259.250656 31.3022404 C 260.576284 31.6222404 261.188444 32.5702404 260.949184 32.7442404 C 260.716391 32.9462404 259.953346 32.5342404 258.966131 32.3102404 C 257.987537 32.0562404 257.103784 32.0662404 257.008943 31.7842404" stroke-linecap="round" />
</g>
		<g transform="matrix(1.17 0 0 1.17 65.74 -212.84)"  >
<path style="stroke: none; stroke-width: 1; stroke-dasharray: none; stroke-linecap: butt; stroke-dashoffset: 0; stroke-linejoin: miter; stroke-miterlimit: 4; fill: rgb(36,19,82); fill-rule: evenodd; opacity: 1;" vector-effect="non-scaling-stroke"  transform=" translate(-239.5, -28)" d="M 237.014179 28.1740299 C 236.859145 27.9240299 237.992089 27.2580299 239.597293 27.3780299 C 241.202497 27.4920299 242.178022 28.3140299 241.972899 28.5380299 C 241.782088 28.7860299 240.749319 28.4960299 239.487576 28.4160299 C 238.228219 28.3100299 237.152518 28.4460299 237.014179 28.1740299" stroke-linecap="round" />
</g>
		<g transform="matrix(1.17 0 0 1.17 80.34 -217.02)"  >
<path style="stroke: none; stroke-width: 1; stroke-dasharray: none; stroke-linecap: butt; stroke-dashoffset: 0; stroke-linejoin: miter; stroke-miterlimit: 4; fill: rgb(255,112,129); fill-rule: evenodd; opacity: 1;" vector-effect="non-scaling-stroke"  transform=" translate(-252, -24.5)" d="M 270.275369 42.4098499 C 264.188249 36.2959939 262.400457 26.1103493 260.749266 17.5198384 C 255.112689 21.7496588 247.359999 22.7892119 240.860681 20.1890946 C 238.821256 22.6583418 236.424752 24.8164638 233.776615 26.56716 C 233.024113 27.065948 232.130217 27.5474512 231.272269 27.2807725 C 230.251358 26.9647088 229.796023 25.757247 229.553976 24.6880629 C 228.777508 21.2607479 228.74875 17.5939158 229.908658 14.2851246 C 231.068566 10.9763334 233.498621 8.06756021 236.683575 6.79836716 C 240.08661 5.44028121 243.91862 6.03043129 247.453463 6.97368371 C 252.776098 8.39597008 257.907013 10.5812538 262.649694 13.4455806 C 267.308497 16.2580531 271.78277 19.9767393 273.757489 25.1522814 C 275.734605 30.3253542 275.725019 40.3850672 270.960769 43" stroke-linecap="round" />
</g>
		<g transform="matrix(1.17 0 0 1.17 36.91 -117.83)"  >
<path style="stroke: none; stroke-width: 1; stroke-dasharray: none; stroke-linecap: butt; stroke-dashoffset: 0; stroke-linejoin: miter; stroke-miterlimit: 4; fill: rgb(36,19,82); fill-rule: evenodd; opacity: 1;" vector-effect="non-scaling-stroke"  transform=" translate(-215, -109)" d="M 235.444037 86.2248676 C 241.640241 83.8689542 194 100.80163 194 100.80163 L 198.831024 132 L 216.951141 126.309155 L 235.444037 86.2248676 Z" stroke-linecap="round" />
</g>
		<g transform="matrix(1.17 0 0 1.17 -16.47 -165.94)"  >
<path style="stroke: none; stroke-width: 1; stroke-dasharray: none; stroke-linecap: butt; stroke-dashoffset: 0; stroke-linejoin: miter; stroke-miterlimit: 4; fill: rgb(255,175,167); fill-rule: evenodd; opacity: 1;" vector-effect="non-scaling-stroke"  transform=" translate(-169.5, -68)" d="M 172.767898 85 C 172.767898 85 184.905505 67.9092755 182.741588 67.9191831 C 180.577671 67.9266139 179.448992 71.1441286 175.246567 73.3461074 C 175.246567 73.3461074 181.954709 51.975271 179.879316 52.4235929 C 177.801464 52.8719148 172.851504 66.5890789 172.526916 66.5742174 C 172.202329 66.5593559 176.798193 51.1900885 175.074437 51.0018428 C 173.353139 50.8135971 169.131042 65.1103597 169.131042 65.1103597 C 169.131042 65.1103597 172.022822 51.5195184 170.198246 51.2148576 C 168.373671 50.9101969 165.68107 63.4310103 165.68107 63.4310103 C 165.68107 63.4310103 167.832692 52.9164993 166.172869 52.6589 C 165.162221 52.5053312 156 78.584786 156 78.584786 C 156.240982 78.584786 172.767898 85 172.767898 85" stroke-linecap="round" />
</g>
		<g transform="matrix(1.17 0 0 1.17 106.22 -104.34)"  >
<path style="stroke: none; stroke-width: 1; stroke-dasharray: none; stroke-linecap: butt; stroke-dashoffset: 0; stroke-linejoin: miter; stroke-miterlimit: 4; fill: rgb(36,19,82); fill-rule: evenodd; opacity: 1;" vector-effect="non-scaling-stroke"  transform=" translate(-274, -120.5)" d="M 267.528859 145 C 267.436339 145.009593 267.248727 144.141445 266.984015 142.562334 C 266.719303 140.983224 266.38006 138.695569 265.989416 135.86381 C 265.2107 130.197875 264.216102 122.377287 263.218933 113.703062 C 262.990201 111.521809 262.86684 109.326048 263.226643 107.205251 C 263.555606 105.084455 264.496234 103.089407 265.814655 101.551407 C 268.466917 98.434296 272.121488 96.9446603 275.136123 96.3836287 C 278.194448 95.8153423 280.71564 95.9942921 282.406714 96.1877513 C 284.105498 96.3981381 285.012715 96.659308 285 96.7342734 C 284.984445 96.831003 284.046387 96.7342734 282.363023 96.6786539 C 280.689939 96.6351256 278.227859 96.6012702 275.341725 97.254195 C 272.496711 97.8926103 269.145403 99.3895006 266.786123 102.264788 C 265.616763 103.689131 264.812347 105.442355 264.521934 107.393874 C 264.208392 109.340557 264.324043 111.432334 264.552774 113.577313 C 265.547373 122.224938 266.39291 130.081799 266.930044 135.767081 C 267.199897 138.608512 267.395218 140.915513 267.500589 142.509133 C 267.60596 144.105171 267.62138 144.990247 267.528859 145" stroke-linecap="round" />
</g>
		<g transform="matrix(1.17 0 0 1.17 117.33 -76.66)"  >
<path style="stroke: none; stroke-width: 1; stroke-dasharray: none; stroke-linecap: butt; stroke-dashoffset: 0; stroke-linejoin: miter; stroke-miterlimit: 4; fill: rgb(36,19,82); fill-rule: evenodd; opacity: 1;" vector-effect="non-scaling-stroke"  transform=" translate(-283.5, -144)" d="M 265 142.095315 C 265.036343 141.759391 273.351087 142.339624 283.566412 143.392028 C 293.784152 144.444433 302.036106 145.569661 302 145.905585 C 301.963657 146.23916 293.653743 145.661276 283.433588 144.606522 C 273.218263 143.556467 264.963894 142.431239 265 142.095315" stroke-linecap="round" />
</g>
		<g transform="matrix(1.17 0 0 1.17 -23.4 -213.89)"  >
<polygon style="stroke: none; stroke-width: 1; stroke-dasharray: none; stroke-linecap: butt; stroke-dashoffset: 0; stroke-linejoin: miter; stroke-miterlimit: 4; fill: rgb(35,129,116); fill-rule: evenodd; opacity: 1;" vector-effect="non-scaling-stroke"  points="46.69,-24.16 46.69,12.85 22.25,12.85 21.47,26.89 7.11,12.04 -46.69,12.04 -41.95,-26.89 " />
</g>
		<g transform="matrix(1.17 0 0 1.17 -18.33 -229.26)"  >
<path style="stroke: none; stroke-width: 1; stroke-dasharray: none; stroke-linecap: butt; stroke-dashoffset: 0; stroke-linejoin: miter; stroke-miterlimit: 4; fill: rgb(230,226,235); fill-rule: evenodd; opacity: 1;" vector-effect="non-scaling-stroke"  transform=" translate(-168, -14)" d="M 203.801128 13.8313851 C 180.031973 13.4373851 156.10641 13.3013851 132.337255 13.7133851 C 131.887582 13.7213851 131.887582 14.2793851 132.337255 14.2873851 C 156.10641 14.6993851 180.031973 14.5613851 203.801128 14.1673851 C 204.065067 14.1653851 204.067511 13.8353851 203.801128 13.8313851" stroke-linecap="round" />
</g>
		<g transform="matrix(1.17 0 0 1.17 -18.33 -219.87)"  >
<path style="stroke: none; stroke-width: 1; stroke-dasharray: none; stroke-linecap: butt; stroke-dashoffset: 0; stroke-linejoin: miter; stroke-miterlimit: 4; fill: rgb(230,226,235); fill-rule: evenodd; opacity: 1;" vector-effect="non-scaling-stroke"  transform=" translate(-168, -22)" d="M 203.801128 21.831 C 180.031973 21.439 156.10641 21.301 132.337255 21.713 C 131.887582 21.721 131.887582 22.279 132.337255 22.287 C 156.10641 22.699 180.031973 22.561 203.801128 22.169 C 204.065067 22.165 204.067511 21.835 203.801128 21.831" stroke-linecap="round" />
</g>
		<g transform="matrix(1.17 0 0 1.17 -5.35 -210.48)"  >
<path style="stroke: none; stroke-width: 1; stroke-dasharray: none; stroke-linecap: butt; stroke-dashoffset: 0; stroke-linejoin: miter; stroke-miterlimit: 4; fill: rgb(230,226,235); fill-rule: evenodd; opacity: 1;" vector-effect="non-scaling-stroke"  transform=" translate(-179, -30)" d="M 200.803175 29.831422 C 186.39239 29.457422 171.746988 29.343422 157.333785 29.713422 C 156.888738 29.725422 156.888738 30.275422 157.333785 30.287422 C 171.746988 30.655422 186.39239 30.543422 200.803175 30.169422 C 201.064398 30.163422 201.066816 29.837422 200.803175 29.831422" stroke-linecap="round" />
</g>
		<g transform="matrix(1.17 0 0 1.17 62.81 -202.27)"  >
<path style="stroke: none; stroke-width: 1; stroke-dasharray: none; stroke-linecap: butt; stroke-dashoffset: 0; stroke-linejoin: miter; stroke-miterlimit: 4; fill: rgb(36,19,82); fill-rule: evenodd; opacity: 1;" vector-effect="non-scaling-stroke"  transform=" translate(-237, -37)" d="M 237.728535 37.814948 C 237.466535 37.942948 237.070535 37.670948 236.696535 37.324948 C 236.328535 36.970948 236.032535 36.594948 236.144535 36.324948 C 236.246535 36.060948 236.886535 36.070948 237.410535 36.564948 C 237.934535 37.058948 237.986535 37.696948 237.728535 37.814948" stroke-linecap="round" />
</g>
		<g transform="matrix(1.17 0 0 1.17 85.12 -201.09)"  >
<path style="stroke: none; stroke-width: 1; stroke-dasharray: none; stroke-linecap: butt; stroke-dashoffset: 0; stroke-linejoin: miter; stroke-miterlimit: 4; fill: rgb(36,19,82); fill-rule: evenodd; opacity: 1;" vector-effect="non-scaling-stroke"  transform=" translate(-256, -38)" d="M 256.831273 38.9847412 C 256.565273 39.0820437 256.103273 38.7010797 255.653273 38.2096198 C 255.207273 37.7132122 254.891273 37.2431917 255.079273 37.0601312 C 255.259273 36.8787198 255.959273 37.1129054 256.487273 37.6934219 C 257.015273 38.2739383 257.091273 38.8923863 256.831273 38.9847412" stroke-linecap="round" />
</g>
		<g transform="matrix(1.17 0 0 1.17 79.24 -179.39)"  >
<path style="stroke: none; stroke-width: 1; stroke-dasharray: none; stroke-linecap: butt; stroke-dashoffset: 0; stroke-linejoin: miter; stroke-miterlimit: 4; fill: rgb(36,19,82); fill-opacity: 0.2; fill-rule: evenodd; opacity: 1;" vector-effect="non-scaling-stroke"  transform=" translate(-251, -56.5)" d="M 252.816075 55.7777814 C 253.278084 57.6703237 252.839823 59.5270538 251.835924 59.9237439 C 250.834183 60.3231888 249.644616 59.1138349 249.182607 57.2212926 C 248.722756 55.331505 249.161018 53.474775 250.164917 53.0753301 C 251.166657 52.67864 252.356224 53.8879939 252.816075 55.7777814" stroke-linecap="round" />
</g>
		<g transform="matrix(1.17 0 0 1.17 88.63 -193.48)"  >
<path style="stroke: none; stroke-width: 1; stroke-dasharray: none; stroke-linecap: butt; stroke-dashoffset: 0; stroke-linejoin: miter; stroke-miterlimit: 4; fill: rgb(36,19,82); fill-opacity: 0.15; fill-rule: evenodd; opacity: 1;" vector-effect="non-scaling-stroke"  transform=" translate(-259, -44.5)" d="M 264 44.45968 C 264.011968 46.3923535 261.78416 47.9782747 259.022831 47.9997787 C 256.261502 48.0212827 254.014468 46.4729935 254 44.54032 C 253.988032 42.6076465 256.21584 41.0217253 258.979572 41.0002213 C 261.738498 40.9787173 263.987935 42.5270065 264 44.45968" stroke-linecap="round" />
</g>
		<g transform="matrix(1.17 0 0 1.17 62.8 -192.3)"  >
<path style="stroke: none; stroke-width: 1; stroke-dasharray: none; stroke-linecap: butt; stroke-dashoffset: 0; stroke-linejoin: miter; stroke-miterlimit: 4; fill: rgb(36,19,82); fill-opacity: 0.15; fill-rule: evenodd; opacity: 1;" vector-effect="non-scaling-stroke"  transform=" translate(-237, -45.5)" d="M 242 45.45968 C 242.011968 47.3923535 239.78416 48.9782747 237.022831 48.9997787 C 234.261502 49.0212827 232.014468 47.4729935 232 45.54032 C 231.988032 43.6076465 234.21584 42.0217253 236.979572 42.0002213 C 239.738498 41.9787173 241.987935 43.5270065 242 45.45968" stroke-linecap="round" />
</g>
		<g transform="matrix(1.17 0 0 1.17 102.14 -219.9)"  >
<path style="stroke: none; stroke-width: 1; stroke-dasharray: none; stroke-linecap: butt; stroke-dashoffset: 0; stroke-linejoin: miter; stroke-miterlimit: 4; fill: rgb(111,53,165); fill-rule: evenodd; opacity: 1;" vector-effect="non-scaling-stroke"  transform=" translate(-270.5, -22)" d="M 272.254812 27.9803867 C 272.149893 27.8398326 272.538968 27.280082 272.184866 26.2518178 C 271.889781 25.2580755 270.993596 23.8328075 270.28102 22.202873 C 268.772807 18.9553333 267.771704 16.1837049 268.044931 16.0086287 C 268.318158 15.8335525 269.773911 18.3437996 271.295239 21.615998 C 272.012186 23.2804545 272.783779 24.6712005 272.969574 26.052083 C 273.059192 26.7178656 272.943344 27.334331 272.720391 27.6573589 C 272.501809 27.9828526 272.300714 28.0371016 272.254812 27.9803867" stroke-linecap="round" />
</g>
		<g transform="matrix(1.17 0 0 1.17 70.93 -52.72)"  >
<polygon style="stroke: none; stroke-width: 1; stroke-dasharray: none; stroke-linecap: butt; stroke-dashoffset: 0; stroke-linejoin: miter; stroke-miterlimit: 4; fill: rgb(124,171,255); fill-rule: evenodd; opacity: 1;" vector-effect="non-scaling-stroke"  points="-24.82,-30.71 -29,23.88 29,31.5 25.08,-31.5 " />
</g>
		<g transform="matrix(1.17 0 0 1.17 49.31 -112.56)"  >
<polyline style="stroke: none; stroke-width: 1; stroke-dasharray: none; stroke-linecap: butt; stroke-dashoffset: 0; stroke-linejoin: miter; stroke-miterlimit: 4; fill: rgb(124,171,255); fill-rule: evenodd; opacity: 1;" vector-effect="non-scaling-stroke"  points="-3.5,-17.1 -3.5,25.5 3.5,23.05 3.5,-25.5 -3.5,-23.51 " />
</g>
		<g transform="matrix(1.17 0 0 1.17 99.75 -113.14)"  >
<path style="stroke: none; stroke-width: 1; stroke-dasharray: none; stroke-linecap: butt; stroke-dashoffset: 0; stroke-linejoin: miter; stroke-miterlimit: 4; fill: rgb(124,171,255); fill-rule: evenodd; opacity: 1;" vector-effect="non-scaling-stroke"  transform=" translate(-268.5, -113)" d="M 275.711471 90 C 275.711471 90 249.741721 93.3109217 257.419497 135.311348 L 263.926171 136 C 263.926171 136 256.587594 96.5409696 281 93.7250932 L 275.711471 90 Z" stroke-linecap="round" />
</g>
		<g transform="matrix(1.17 0 0 1.17 74.35 -37.49)"  >
<path style="stroke: none; stroke-width: 1; stroke-dasharray: none; stroke-linecap: butt; stroke-dashoffset: 0; stroke-linejoin: miter; stroke-miterlimit: 4; fill: rgb(255,175,167); fill-rule: evenodd; opacity: 1;" vector-effect="non-scaling-stroke"  transform=" translate(-247, -177.5)" d="M 268.651809 138 C 268.651809 138 277.469289 190.133106 265.034697 188.850902 C 224.133505 184.631238 199.778939 184.060546 199.778939 184.060546 L 193 198.184561 C 192.842653 200.590856 270.456671 222.882441 282.928199 215.512853 C 291.733367 210.307448 305.761065 196.289665 299.393569 154.399373 L 297.889106 140.359355 L 268.651809 138 Z" stroke-linecap="round" />
</g>
		<g transform="matrix(1.17 0 0 1.17 117.33 -100.23)"  >
<path style="stroke: none; stroke-width: 1; stroke-dasharray: none; stroke-linecap: butt; stroke-dashoffset: 0; stroke-linejoin: miter; stroke-miterlimit: 4; fill: rgb(36,19,82); fill-rule: evenodd; opacity: 1;" vector-effect="non-scaling-stroke"  transform=" translate(-283.5, -124)" d="M 290.45492 103.899822 C 290.45492 103.899822 299.891154 113.116782 302 148 L 265.482382 143.889533 C 265.482382 143.889533 259.396924 84.4822658 290.45492 103.899822" stroke-linecap="round" />
</g>
		<g transform="matrix(1.17 0 0 1.17 6.41 -20.94)"  >
<path style="stroke: none; stroke-width: 1; stroke-dasharray: none; stroke-linecap: butt; stroke-dashoffset: 0; stroke-linejoin: miter; stroke-miterlimit: 4; fill: rgb(255,175,167); fill-rule: evenodd; opacity: 1;" vector-effect="non-scaling-stroke"  transform=" translate(-189, -191.5)" d="M 204.354915 184.631645 C 204.354915 184.631645 184.227071 178.35075 184.915498 180.417287 C 185.606402 182.481362 189.033683 182.560181 192.458487 185.890287 C 192.458487 185.890287 169.953338 186.13167 171.037983 187.976529 C 172.120152 189.821388 186.765338 190.28445 186.854487 190.597263 C 186.943636 190.912539 170.832446 191.304172 171.19647 193.008634 C 171.558019 194.71556 186.527608 194.299296 186.527608 194.299296 C 186.527608 194.299296 172.652569 195.767301 172.934874 197.604771 C 173.222132 199.444704 186.015002 198.119558 186.015002 198.119558 C 186.015002 198.119558 175.307226 199.336328 175.584578 201.00138 C 175.755447 202.016176 206.935281 202.247707 207 202.994025 C 207.034335 203.383194 204.354915 184.631645 204.354915 184.631645" stroke-linecap="round" />
</g>
		<g transform="matrix(1.17 0 0 1.17 49.9 -86.06)"  >
<path style="stroke: none; stroke-width: 1; stroke-dasharray: none; stroke-linecap: butt; stroke-dashoffset: 0; stroke-linejoin: miter; stroke-miterlimit: 4; fill: rgb(36,19,82); fill-rule: evenodd; opacity: 1;" vector-effect="non-scaling-stroke"  transform=" translate(-226, -136)" d="M 229.293955 132.000194 C 229.448301 131.984441 229.834165 132.92961 229.983532 134.659795 C 230.03581 135.510447 229.991 136.639399 229.438343 137.755223 C 228.930495 138.821164 227.805265 140 226.24687 140 C 224.720838 139.981622 223.593118 138.978692 222.950841 137.983639 C 222.283668 136.9282 222.106918 135.859634 222.027255 135.003731 C 221.922698 133.278798 222.14177 132.275868 222.298605 132.265366 C 222.497761 132.252239 222.609786 133.305052 222.930925 134.848828 C 223.107676 135.604964 223.376536 136.513376 223.919236 137.248508 C 224.459446 137.986265 225.335732 138.640007 226.244381 138.63213 C 227.15054 138.647883 227.942184 137.946883 228.395264 137.140863 C 228.86328 136.340095 229.005179 135.434308 229.067415 134.654544 C 229.157035 133.081887 229.094799 132.021198 229.293955 132.000194" stroke-linecap="round" />
</g>
		<g transform="matrix(1.17 0 0 1.17 51.07 -87.22)"  >
<path style="stroke: none; stroke-width: 1; stroke-dasharray: none; stroke-linecap: butt; stroke-dashoffset: 0; stroke-linejoin: miter; stroke-miterlimit: 4; fill: rgb(36,19,82); fill-rule: evenodd; opacity: 1;" vector-effect="non-scaling-stroke"  transform=" translate(-227, -135)" d="M 226.52813 134.382028 C 226.594764 134.483763 226.516753 134.677228 226.60614 134.90238 C 226.724781 135.160889 226.838547 135.222597 227.054701 135.089174 C 227.257853 134.935736 227.244852 134.802313 227.057951 134.590502 C 226.890554 134.420387 226.685776 134.420387 226.620767 134.318651 C 226.536256 134.2436 226.776788 133.900034 227.298484 134.028455 C 227.532515 134.095166 227.831556 134.276956 227.959948 134.678896 C 228.094841 135.094177 227.873812 135.587845 227.524389 135.81133 C 227.189594 136.054828 226.661398 136.078178 226.339604 135.789649 C 226.024312 135.514462 225.97718 135.160889 226.00806 134.912387 C 226.090946 134.370353 226.49075 134.275289 226.52813 134.382028" stroke-linecap="round" />
</g>
		<g transform="matrix(1.17 0 0 1.17 90.39 -87.23)"  >
<path style="stroke: none; stroke-width: 1; stroke-dasharray: none; stroke-linecap: butt; stroke-dashoffset: 0; stroke-linejoin: miter; stroke-miterlimit: 4; fill: rgb(36,19,82); fill-rule: evenodd; opacity: 1;" vector-effect="non-scaling-stroke"  transform=" translate(-260.5, -135)" d="M 263.474767 133.005755 C 263.614249 132.937947 264.145858 133.471658 263.961637 134.484395 C 263.81426 135.420576 262.735251 136.870781 260.648289 136.999834 C 258.553432 137.017333 257.33231 135.648059 257.090191 134.725003 C 256.803332 133.729764 257.279675 133.161056 257.42442 133.217927 C 257.629695 133.257299 257.574429 133.791009 258.000769 134.449398 C 258.377107 135.090288 259.395586 135.897416 260.590391 135.862418 C 261.785197 135.814297 262.716829 134.939362 263.027373 134.272224 C 263.382657 133.587587 263.274756 133.058251 263.474767 133.005755" stroke-linecap="round" />
</g>
		<g transform="matrix(1.17 0 0 1.17 92.16 -91.92)"  >
<path style="stroke: none; stroke-width: 1; stroke-dasharray: none; stroke-linecap: butt; stroke-dashoffset: 0; stroke-linejoin: miter; stroke-miterlimit: 4; fill: rgb(36,19,82); fill-rule: evenodd; opacity: 1;" vector-effect="non-scaling-stroke"  transform=" translate(-262, -131)" d="M 261.136218 129.73087 C 261.065819 129.58762 261.282044 129.014617 261.848586 129 C 262.116772 129.002923 262.482174 129.160791 262.760417 129.745487 C 263.060449 130.312643 263.08224 131.403101 262.805673 132.066731 C 262.574363 132.774213 261.984355 133.262434 261.498269 132.8473 C 261.003802 132.379543 260.970278 131.581433 261.013859 131.101982 C 261.059115 130.584526 261.256902 130.20155 261.42787 130.110922 C 261.600514 130.023218 261.687675 130.137234 261.696055 130.227862 C 261.694379 130.447123 261.543525 130.681001 261.629009 131.142911 C 261.749693 131.680831 261.84691 131.698372 262.069839 131.245233 C 262.267626 130.745318 262.079896 130.31849 261.758073 130.064147 C 261.459717 129.839039 261.199912 129.917973 261.136218 129.73087" stroke-linecap="round" />
</g>
		<g transform="matrix(1.17 0 0 1.17 88.64 -64.34)"  >
<path style="stroke: none; stroke-width: 1; stroke-dasharray: none; stroke-linecap: butt; stroke-dashoffset: 0; stroke-linejoin: miter; stroke-miterlimit: 4; fill: rgb(36,19,82); fill-rule: evenodd; opacity: 1;" vector-effect="non-scaling-stroke"  transform=" translate(-259, -154.5)" d="M 258.780209 156.99609 C 258.494209 156.920842 258.448209 155.802152 258.482209 154.4828 C 258.522209 153.163447 258.622209 152.057298 258.910209 152.002116 C 259.190209 151.944426 259.566209 153.07315 259.524209 154.527949 C 259.486209 155.982748 259.056209 157.073847 258.780209 156.99609" stroke-linecap="round" />
</g>
		<g transform="matrix(1.17 0 0 1.17 83.95 -53.18)"  >
<path style="stroke: none; stroke-width: 1; stroke-dasharray: none; stroke-linecap: butt; stroke-dashoffset: 0; stroke-linejoin: miter; stroke-miterlimit: 4; fill: rgb(36,19,82); fill-rule: evenodd; opacity: 1;" vector-effect="non-scaling-stroke"  transform=" translate(-255, -164)" d="M 254.039668 165.943615 C 253.876074 165.69108 254.240152 164.758642 254.734142 163.716935 C 255.232944 162.677656 255.706084 161.861773 255.914586 162.019608 C 256.119881 162.167729 255.956287 163.318707 255.410973 164.457543 C 254.87047 165.596379 254.196847 166.193722 254.039668 165.943615" stroke-linecap="round" />
</g>
		<g transform="matrix(1.17 0 0 1.17 76.31 -46.14)"  >
<path style="stroke: none; stroke-width: 1; stroke-dasharray: none; stroke-linecap: butt; stroke-dashoffset: 0; stroke-linejoin: miter; stroke-miterlimit: 4; fill: rgb(36,19,82); fill-rule: evenodd; opacity: 1;" vector-effect="non-scaling-stroke"  transform=" translate(-248.5, -170)" d="M 246.002025 170.550065 C 245.946855 170.260065 247.026603 169.912065 248.340165 169.582065 C 249.658982 169.260065 250.793899 169.056065 250.977798 169.312065 C 251.15907 169.560065 250.213305 170.216065 248.763132 170.574065 C 247.315587 170.932065 246.05194 170.830065 246.002025 170.550065" stroke-linecap="round" />
</g>
		<g transform="matrix(1.17 0 0 1.17 63.4 -46.14)"  >
<path style="stroke: none; stroke-width: 1; stroke-dasharray: none; stroke-linecap: butt; stroke-dashoffset: 0; stroke-linejoin: miter; stroke-miterlimit: 4; fill: rgb(36,19,82); fill-rule: evenodd; opacity: 1;" vector-effect="non-scaling-stroke"  transform=" translate(-237.5, -170)" d="M 235.017945 169.382383 C 235.181551 169.120383 236.316406 169.284383 237.638239 169.566383 C 238.960072 169.854383 240.040391 170.174383 239.99884 170.466383 C 239.96508 170.748383 238.718558 170.882383 237.272073 170.568383 C 235.825587 170.258383 234.854339 169.636383 235.017945 169.382383" stroke-linecap="round" />
</g>
		<g transform="matrix(1.17 0 0 1.17 53.43 -52.01)"  >
<path style="stroke: none; stroke-width: 1; stroke-dasharray: none; stroke-linecap: butt; stroke-dashoffset: 0; stroke-linejoin: miter; stroke-miterlimit: 4; fill: rgb(36,19,82); fill-rule: evenodd; opacity: 1;" vector-effect="non-scaling-stroke"  transform=" translate(-229, -165)" d="M 228.074359 163.023203 C 228.271444 162.851075 228.742601 163.65933 229.244552 164.694595 C 229.743423 165.734849 230.116037 166.662845 229.966684 166.934758 C 229.823489 167.201682 229.161406 166.635404 228.613263 165.495366 C 228.063581 164.360316 227.881893 163.187848 228.074359 163.023203" stroke-linecap="round" />
</g>
		<g transform="matrix(1.17 0 0 1.17 51.08 -63.17)"  >
<path style="stroke: none; stroke-width: 1; stroke-dasharray: none; stroke-linecap: butt; stroke-dashoffset: 0; stroke-linejoin: miter; stroke-miterlimit: 4; fill: rgb(36,19,82); fill-rule: evenodd; opacity: 1;" vector-effect="non-scaling-stroke"  transform=" translate(-227, -155.5)" d="M 226.988215 153.001022 C 227.278215 153.0387 227.422215 154.141425 227.506215 155.460172 C 227.584215 156.783944 227.572215 157.906763 227.288215 157.99468 C 227.014215 158.085108 226.554215 157.012527 226.468215 155.56316 C 226.376215 154.111282 226.706215 152.960831 226.988215 153.001022" stroke-linecap="round" />
</g>
		<g transform="matrix(1.17 0 0 1.17 56.35 -67.27)"  >
<path style="stroke: none; stroke-width: 1; stroke-dasharray: none; stroke-linecap: butt; stroke-dashoffset: 0; stroke-linejoin: miter; stroke-miterlimit: 4; fill: rgb(36,19,82); fill-rule: evenodd; opacity: 1;" vector-effect="non-scaling-stroke"  transform=" translate(-231.5, -152)" d="M 233.999895 152.072 C 233.987389 152.36 232.856863 152.56 231.478721 152.52 C 230.095577 152.48 228.990063 152.214 229.000067 151.928 C 229.015074 151.64 230.1431 151.44 231.523742 151.48 C 232.904385 151.52 234.012401 151.784 233.999895 152.072" stroke-linecap="round" />
</g>
		<g transform="matrix(1.17 0 0 1.17 68.09 -67.27)"  >
<path style="stroke: none; stroke-width: 1; stroke-dasharray: none; stroke-linecap: butt; stroke-dashoffset: 0; stroke-linejoin: miter; stroke-miterlimit: 4; fill: rgb(36,19,82); fill-rule: evenodd; opacity: 1;" vector-effect="non-scaling-stroke"  transform=" translate(-241.5, -152)" d="M 243.999895 152.072 C 243.987389 152.36 242.856872 152.56 241.476239 152.52 C 240.095607 152.482 238.987599 152.216 239.000105 151.928 C 239.012611 151.64 240.143128 151.44 241.523761 151.48 C 242.904393 151.52 244.012401 151.784 243.999895 152.072" stroke-linecap="round" />
</g>
		<g transform="matrix(1.17 0 0 1.17 81.01 -67.27)"  >
<path style="stroke: none; stroke-width: 1; stroke-dasharray: none; stroke-linecap: butt; stroke-dashoffset: 0; stroke-linejoin: miter; stroke-miterlimit: 4; fill: rgb(36,19,82); fill-rule: evenodd; opacity: 1;" vector-effect="non-scaling-stroke"  transform=" translate(-252.5, -152)" d="M 254.999895 152.072 C 254.987389 152.36 253.856872 152.56 252.476239 152.52 C 251.095607 152.48 249.987599 152.214 250.000105 151.928 C 250.012611 151.64 251.143128 151.44 252.523761 151.48 C 253.904393 151.52 255.012401 151.784 254.999895 152.072" stroke-linecap="round" />
</g>
		<g transform="matrix(1.17 0 0 1.17 89.22 50.08)"  >
<path style="stroke: none; stroke-width: 1; stroke-dasharray: none; stroke-linecap: butt; stroke-dashoffset: 0; stroke-linejoin: miter; stroke-miterlimit: 4; fill: rgb(255,149,126); fill-rule: evenodd; opacity: 1;" vector-effect="non-scaling-stroke"  transform=" translate(-259.5, -252)" d="M 259.293852 263.057016 C 260.639562 256.240505 261.729675 248.904782 261.99838 241.92509 C 262.081394 239.749345 258.948686 239.205409 258.588228 241.403406 C 257.454424 248.311397 257.045905 255.691624 257 262.703457 C 256.99129 264.16714 259.001117 264.535533 259.293852 263.057016" stroke-linecap="round" />
</g>
		<g transform="matrix(1.17 0 0 1.17 126.2 92.37)"  >
<path style="stroke: none; stroke-width: 1; stroke-dasharray: none; stroke-linecap: butt; stroke-dashoffset: 0; stroke-linejoin: miter; stroke-miterlimit: 4; fill: rgb(36,19,82); fill-rule: evenodd; opacity: 1;" vector-effect="non-scaling-stroke"  transform=" translate(-291, -288)" d="M 293.882947 285.400253 C 293.768615 285.300433 293.654282 285.200613 293.53995 285.098417 C 292.032196 283.767488 289.557383 283.506056 288.092504 285.098417 C 286.608569 286.709791 286.663353 288.922461 288.092504 290.533835 L 288.395007 290.876074 C 289.745555 292.397135 292.525253 292.351979 293.882947 290.876074 C 295.233494 289.409676 295.505033 286.835754 293.882947 285.400253" stroke-linecap="round" />
</g>
		<g transform="matrix(1.17 0 0 1.17 -87.14 122.88)"  >
<path style="stroke: none; stroke-width: 1; stroke-dasharray: none; stroke-linecap: butt; stroke-dashoffset: 0; stroke-linejoin: miter; stroke-miterlimit: 4; fill: rgb(158,219,211); fill-rule: evenodd; opacity: 1;" vector-effect="non-scaling-stroke"  transform=" translate(-105.61, -105.32)" d="M 210.222066 105.323268 C 210.222066 163.133926 163.383934 210.00172 105.606835 210.00172 C 47.8272807 210.00172 0.99160483 163.133926 0.99160483 105.323268 C 0.99160483 47.5126104 47.8272807 0.647273441 105.606835 0.647273441 C 163.383934 0.647273441 210.222066 47.5126104 210.222066 105.323268" stroke-linecap="round" />
</g>
		<g transform="matrix(1.17 0 0 1.17 -14.25 107.54)"  >
<path style="stroke: none; stroke-width: 1; stroke-dasharray: none; stroke-linecap: butt; stroke-dashoffset: 0; stroke-linejoin: miter; stroke-miterlimit: 4; fill: rgb(255,175,167); fill-rule: evenodd; opacity: 1;" vector-effect="non-scaling-stroke"  transform=" translate(-171.5, -301)" d="M 125 278.747597 L 195.523926 305.361166 L 188.790724 276.69267 L 207.131087 272 C 207.131087 272 226.859019 328.043242 213.158027 329.542987 C 189.172555 332.170681 152.881146 322.609491 152.881146 322.609491 L 125 278.747597 Z" stroke-linecap="round" />
</g>
		<g transform="matrix(1.17 0 0 1.17 -88.77 154.36)"  >
<path style="stroke: none; stroke-width: 1; stroke-dasharray: none; stroke-linecap: butt; stroke-dashoffset: 0; stroke-linejoin: miter; stroke-miterlimit: 4; fill: rgb(35,129,116); fill-rule: evenodd; opacity: 1;" vector-effect="non-scaling-stroke"  transform=" translate(-108, -341)" d="M 149 341.938838 L 148.845356 396.60458 C 131.063708 418.733577 69.1601839 390.117777 69.1601839 390.117777 L 68.4377063 367.761301 L 67 314.506904 C 68.4256247 293.30005 87.8841938 282.889858 87.8841938 282.889858 C 95.9256836 278.834383 108.193305 276.530248 119.247937 277.080599 C 130.783416 277.660301 133.634665 283.251866 138.387553 293.909105 C 142.229491 302.521485 149 310.59819 149 341.938838" stroke-linecap="round" />
</g>
		<g transform="matrix(1.17 0 0 1.17 -79.43 189.08)"  >
<path style="stroke: none; stroke-width: 1; stroke-dasharray: none; stroke-linecap: butt; stroke-dashoffset: 0; stroke-linejoin: miter; stroke-miterlimit: 4; fill: rgb(255,175,167); fill-rule: evenodd; opacity: 1;" vector-effect="non-scaling-stroke"  transform=" translate(-116, -370.5)" d="M 94.3481912 331 C 94.3481912 331 85.5307108 383.133615 97.9653034 381.851398 C 138.866495 377.631693 163.221061 377.063465 163.221061 377.063465 L 170 391.185148 C 170.157347 393.591467 92.5433285 415.880798 80.0718015 408.513608 C 71.2666325 403.308153 57.2389346 389.292704 63.606431 347.402003 L 65.1108936 333.359378 L 94.3481912 331 Z" stroke-linecap="round" />
</g>
		<g transform="matrix(1.17 0 0 1.17 -123.32 127.51)"  >
<path style="stroke: none; stroke-width: 1; stroke-dasharray: none; stroke-linecap: butt; stroke-dashoffset: 0; stroke-linejoin: miter; stroke-miterlimit: 4; fill: rgb(35,129,116); fill-rule: evenodd; opacity: 1;" vector-effect="non-scaling-stroke"  transform=" translate(-78.5, -318)" d="M 71.5450805 297.900531 C 71.5450805 297.900531 62.1088462 307.11982 60 342 L 96.5176179 337.889599 C 96.5176179 337.889599 102.603076 278.480809 71.5450805 297.900531" stroke-linecap="round" />
</g>
		<g transform="matrix(1.17 0 0 1.17 -89.3 31.81)"  >
<path style="stroke: none; stroke-width: 1; stroke-dasharray: none; stroke-linecap: butt; stroke-dashoffset: 0; stroke-linejoin: miter; stroke-miterlimit: 4; fill: rgb(255,175,167); fill-rule: evenodd; opacity: 1;" vector-effect="non-scaling-stroke"  transform=" translate(-107.5, -236.5)" d="M 89.2975396 225.307244 L 90.1277345 236.258119 C 90.1277345 236.258119 80.821715 237.512728 83.4763795 246.008293 C 86.128595 254.501408 92.4934226 250.784139 92.4934226 250.784139 C 92.4934226 250.784139 94.0852417 272.548666 116.368261 265.648316 C 134.101126 260.1545 133.01624 237.179472 130.765652 217.590908 C 129.891376 210.001994 122.718394 204.785074 115.2246 206.245518 L 101.82883 208.855202 C 94.0876907 210.364654 88.6999952 217.436532 89.2975396 225.307244" stroke-linecap="round" />
</g>
		<g transform="matrix(1.17 0 0 1.17 -89.86 65.89)"  >
<path style="stroke: none; stroke-width: 1; stroke-dasharray: none; stroke-linecap: butt; stroke-dashoffset: 0; stroke-linejoin: miter; stroke-miterlimit: 4; fill: rgb(255,175,167); fill-rule: evenodd; opacity: 1;" vector-effect="non-scaling-stroke"  transform=" translate(-107, -265.5)" d="M 91 244 L 97.1059768 276.395425 C 98.4805686 283.695732 105.712117 288.364361 112.971058 286.642122 C 119.697095 285.043786 124.005145 278.506715 122.797397 271.729274 L 119.482937 253.161316 L 91 244 Z" stroke-linecap="round" />
</g>
		<g transform="matrix(1.17 0 0 1.17 -78.05 30.71)"  >
<path style="stroke: none; stroke-width: 1; stroke-dasharray: none; stroke-linecap: butt; stroke-dashoffset: 0; stroke-linejoin: miter; stroke-miterlimit: 4; fill: rgb(36,19,82); fill-rule: evenodd; opacity: 1;" vector-effect="non-scaling-stroke"  transform=" translate(-117, -235.5)" d="M 116.020965 245.080052 C 116.077542 245.019502 116.197163 245.372711 116.465501 245.42317 C 116.727373 245.463537 117.126648 245.039685 117.223638 244.144046 C 117.357807 243.255976 117.283448 242.087861 117.202623 240.735572 C 117.133114 239.282366 117.065221 237.84682 116.994095 236.340633 C 116.743538 230.098912 116.727373 225.022783 116.960149 225 C 117.192924 224.97737 117.5825 230.015655 117.834673 236.257376 C 117.883168 237.766087 117.930046 239.206678 117.976925 240.659884 C 118.010871 241.994512 118.043201 243.314003 117.794261 244.40643 C 117.600281 245.546793 116.848611 246.253213 116.379827 245.915141 C 115.930441 245.559408 115.990251 245.072483 116.020965 245.080052" stroke-linecap="round" />
</g>
		<g transform="matrix(1.17 0 0 1.17 -82.78 66.55)"  >
<path style="stroke: none; stroke-width: 1; stroke-dasharray: none; stroke-linecap: butt; stroke-dashoffset: 0; stroke-linejoin: miter; stroke-miterlimit: 4; fill: rgb(36,19,82); fill-rule: evenodd; opacity: 1;" vector-effect="non-scaling-stroke"  transform=" translate(-113, -266)" d="M 123.992055 264.023932 C 124.096107 264.134724 123.177403 265.034634 121.279087 266.006898 C 119.401075 266.979162 116.467314 267.933337 113.089428 267.996647 C 109.711543 268.059958 106.732101 267.216575 104.810944 266.316666 C 102.869485 265.416756 101.910175 264.550763 102.006614 264.437709 C 102.17665 264.109853 106.678806 266.958812 113.061512 266.816364 C 119.444218 266.716877 123.809329 263.702858 123.992055 264.023932" stroke-linecap="round" />
</g>
		<g transform="matrix(1.17 0 0 1.17 -82.18 46)"  >
<path style="stroke: none; stroke-width: 1; stroke-dasharray: none; stroke-linecap: butt; stroke-dashoffset: 0; stroke-linejoin: miter; stroke-miterlimit: 4; fill: rgb(36,19,82); fill-rule: evenodd; opacity: 1;" vector-effect="non-scaling-stroke"  transform=" translate(-113.5, -248.5)" d="M 117.973305 248.736861 C 118.094552 248.822019 117.816396 249.496376 116.858303 250.147718 C 115.933494 250.792155 114.231275 251.316911 112.443469 250.773742 C 110.662795 250.20986 109.595342 248.819717 109.2316 247.77711 C 108.846461 246.704583 109.024766 246.000305 109.174542 246.000305 C 109.362357 245.984194 109.509756 246.607917 110.023275 247.415765 C 110.520151 248.214407 111.475867 249.206379 112.821476 249.632168 C 114.17184 250.046449 115.545978 249.779468 116.432749 249.408917 C 117.333784 249.042969 117.83066 248.619481 117.973305 248.736861" stroke-linecap="round" />
</g>
		<g transform="matrix(1.17 0 0 1.17 -112.09 41.31)"  >
<path style="stroke: none; stroke-width: 1; stroke-dasharray: none; stroke-linecap: butt; stroke-dashoffset: 0; stroke-linejoin: miter; stroke-miterlimit: 4; fill: rgb(36,19,82); fill-rule: evenodd; opacity: 1;" vector-effect="non-scaling-stroke"  transform=" translate(-88, -244.5)" d="M 88.9740563 246.782289 C 88.9756778 246.910388 88.614087 247.135086 87.9736011 246.891488 C 87.6687623 246.767589 87.26177 246.412691 87.0882713 245.795295 C 87.0007112 245.497097 86.9617956 245.1296 87.0493557 244.743202 C 87.1190795 244.369405 87.3963531 243.962008 87.7028134 243.833908 C 88.1211561 243.61131 88.7065115 243.743609 88.9756778 244.340005 L 88.2606036 244.820902 C 87.791995 243.285812 87.5633659 242.10562 87.7384861 242.006921 C 87.9136062 241.906121 88.4357238 242.916215 89 244.396705 L 88.2833044 244.881801 C 88.2670896 244.848202 88.1487213 244.783102 88.0027878 244.854502 C 87.8455039 244.917501 87.7741587 245.1611 87.8276676 245.482397 C 87.8795551 245.788995 88.0352175 246.017894 88.228174 246.192193 C 88.6157085 246.52399 88.9837852 246.62059 88.9740563 246.782289" stroke-linecap="round" />
</g>
		<g transform="matrix(1.17 0 0 1.17 -92.14 18.42)"  >
<path style="stroke: none; stroke-width: 1; stroke-dasharray: none; stroke-linecap: butt; stroke-dashoffset: 0; stroke-linejoin: miter; stroke-miterlimit: 4; fill: rgb(36,19,82); fill-rule: evenodd; opacity: 1;" vector-effect="non-scaling-stroke"  transform=" translate(-105, -225)" d="M 106.991058 224.783755 C 106.896216 225.065755 106.012465 225.057755 105.033873 225.309755 C 104.046658 225.535755 103.281459 225.945755 103.050822 225.743755 C 102.811562 225.569755 103.423722 224.621755 104.747192 224.301755 C 106.072819 223.977755 107.107454 224.523755 106.991058 224.783755" stroke-linecap="round" />
</g>
		<g transform="matrix(1.17 0 0 1.17 -70.43 13.73)"  >
<path style="stroke: none; stroke-width: 1; stroke-dasharray: none; stroke-linecap: butt; stroke-dashoffset: 0; stroke-linejoin: miter; stroke-miterlimit: 4; fill: rgb(36,19,82); fill-rule: evenodd; opacity: 1;" vector-effect="non-scaling-stroke"  transform=" translate(-123.5, -221)" d="M 125.985795 221.17403 C 125.847455 221.44603 124.771749 221.31203 123.512384 221.41603 C 122.250635 221.49603 121.217861 221.78603 121.027048 221.53803 C 120.821924 221.31403 121.79984 220.49203 123.405052 220.37803 C 125.010264 220.25803 126.14083 220.92403 125.985795 221.17403" stroke-linecap="round" />
</g>
		<g transform="matrix(1.17 0 0 1.17 -85.19 9.55)"  >
<path style="stroke: none; stroke-width: 1; stroke-dasharray: none; stroke-linecap: butt; stroke-dashoffset: 0; stroke-linejoin: miter; stroke-miterlimit: 4; fill: rgb(36,19,82); fill-rule: evenodd; opacity: 1;" vector-effect="non-scaling-stroke"  transform=" translate(-111, -217.5)" d="M 92.722888 235.40985 C 98.8099677 229.295994 100.597748 219.110349 102.248928 210.519838 C 107.885468 214.749659 115.638107 215.789212 122.137383 213.189095 C 124.176794 215.658342 126.573282 217.813995 129.221402 219.564691 C 129.973899 220.063479 130.867789 220.547451 131.725732 220.280772 C 132.746636 219.96224 133.201968 218.757247 133.444014 217.685594 C 134.222872 214.260748 134.25163 210.593916 133.09173 207.282655 C 131.929433 203.973864 129.499394 201.06756 126.314462 199.798367 C 122.911448 198.440281 119.081861 199.030431 115.547041 199.973684 C 110.224441 201.39597 105.09356 203.581254 100.348513 206.445581 C 95.6897402 209.255584 91.2178934 212.976739 89.2407908 218.149812 C 87.2660846 223.325354 87.2756705 233.382598 92.0374924 236" stroke-linecap="round" />
</g>
		<g transform="matrix(1.17 0 0 1.17 -41.75 108.73)"  >
<path style="stroke: none; stroke-width: 1; stroke-dasharray: none; stroke-linecap: butt; stroke-dashoffset: 0; stroke-linejoin: miter; stroke-miterlimit: 4; fill: rgb(35,129,116); fill-rule: evenodd; opacity: 1;" vector-effect="non-scaling-stroke"  transform=" translate(-148, -302)" d="M 127.555502 279.224868 C 121.362124 276.868954 169 293.80163 169 293.80163 L 164.166698 325 L 146.04748 319.309155 L 127.555502 279.224868 Z" stroke-linecap="round" />
</g>
		<g transform="matrix(1.17 0 0 1.17 -11.2 204.45)"  >
<path style="stroke: none; stroke-width: 1; stroke-dasharray: none; stroke-linecap: butt; stroke-dashoffset: 0; stroke-linejoin: miter; stroke-miterlimit: 4; fill: rgb(255,175,167); fill-rule: evenodd; opacity: 1;" vector-effect="non-scaling-stroke"  transform=" translate(-174, -383.5)" d="M 158.644915 376.631015 C 158.644915 376.631015 178.773945 370.352393 178.083085 372.41653 C 177.392225 374.48313 173.965164 374.559489 170.543056 377.892158 C 170.543056 377.892158 193.044285 378.133549 191.962186 379.978463 C 190.880086 381.820915 176.233363 382.283991 176.14422 382.599277 C 176.057553 382.914563 192.165234 383.306207 191.803709 385.010721 C 191.439707 386.715235 176.471079 386.301422 176.471079 386.301422 C 176.471079 386.301422 190.345227 387.767008 190.06294 389.606997 C 189.778177 391.446985 176.986128 390.121799 176.986128 390.121799 C 176.986128 390.121799 187.693217 391.338605 187.413406 393.001246 C 187.242548 394.018535 156.064715 394.24761 156 394.99395 C 155.965667 395.385594 158.644915 376.631015 158.644915 376.631015" stroke-linecap="round" />
</g>
		<g transform="matrix(1.17 0 0 1.17 10.53 61.8)"  >
<path style="stroke: none; stroke-width: 1; stroke-dasharray: none; stroke-linecap: butt; stroke-dashoffset: 0; stroke-linejoin: miter; stroke-miterlimit: 4; fill: rgb(255,175,167); fill-rule: evenodd; opacity: 1;" vector-effect="non-scaling-stroke"  transform=" translate(-192.5, -262)" d="M 189.232102 279 C 189.232102 279 177.094495 261.911752 179.258412 261.919183 C 181.422329 261.926614 182.551008 265.144129 186.753433 267.348584 C 186.753433 267.348584 180.04775 245.975271 182.120684 246.423593 C 184.198536 246.871915 189.150955 260.589079 189.475543 260.576694 C 189.797671 260.559356 185.201807 245.192565 186.925563 245.001843 C 188.646861 244.813597 192.868958 259.11036 192.868958 259.11036 C 192.868958 259.11036 189.977178 245.519518 191.801754 245.214858 C 193.628788 244.910197 196.31893 257.43101 196.31893 257.43101 C 196.31893 257.43101 194.167308 246.916499 195.827131 246.6589 C 196.837779 246.505331 206 272.584786 206 272.584786 C 205.759018 272.584786 189.232102 279 189.232102 279" stroke-linecap="round" />
</g>
		<g transform="matrix(1.17 0 0 1.17 -128.54 138.74)"  >
<path style="stroke: none; stroke-width: 1; stroke-dasharray: none; stroke-linecap: butt; stroke-dashoffset: 0; stroke-linejoin: miter; stroke-miterlimit: 4; fill: rgb(252,242,252); fill-rule: evenodd; opacity: 1;" vector-effect="non-scaling-stroke"  transform=" translate(-74, -327.5)" d="M 78.4047136 325.000181 C 78.5343324 324.986759 78.9759965 325.720505 79 327.17905 C 78.9951993 327.885952 78.6855544 328.910512 77.7206144 329.552541 C 77.2597475 329.872436 76.5732479 330.100613 75.8627448 329.955206 C 75.1594428 329.818747 74.6289658 329.373578 74.2449101 328.984335 C 73.4743983 328.145448 72.9703252 327.648827 72.1782103 327.561582 C 71.4221006 327.449731 70.7380013 327.686856 70.2987376 328.06044 C 69.3770038 328.845639 69.405808 329.751636 69.2185809 329.740451 C 69.0937628 329.814273 68.6160935 328.771816 69.6530439 327.496708 C 70.1595174 326.888236 71.177265 326.391615 72.3102294 326.494518 C 72.8695106 326.537022 73.4671973 326.724932 73.9712704 327.082857 C 74.4633418 327.429597 74.8137926 327.847922 75.1594428 328.192425 C 76.4004228 329.77177 78.0302593 328.228218 78.1190722 327.094043 C 78.3159007 325.892757 78.200684 325.013603 78.4047136 325.000181" stroke-linecap="round" />
</g>
		<g transform="matrix(1.17 0 0 1.17 -105.65 127.59)"  >
<path style="stroke: none; stroke-width: 1; stroke-dasharray: none; stroke-linecap: butt; stroke-dashoffset: 0; stroke-linejoin: miter; stroke-miterlimit: 4; fill: rgb(252,242,252); fill-rule: evenodd; opacity: 1;" vector-effect="non-scaling-stroke"  transform=" translate(-93.5, -318)" d="M 89.0087374 316.113905 C 88.9308082 316.011998 89.3653226 315.256965 90.668866 314.450978 C 91.3088303 314.073461 92.392755 313.777006 93.4625107 314.22632 C 93.9867618 314.432449 94.5440739 314.877132 94.7778616 315.539523 C 95.0140107 316.192651 94.8841287 316.871255 94.7306317 317.394683 C 94.366962 318.480912 94.1780427 319.164148 94.5039285 319.865913 C 94.789669 320.549149 95.356427 320.986883 95.918462 321.146691 C 97.0944849 321.480203 97.8973921 320.970671 97.9847672 321.130479 C 98.1146493 321.193012 97.4180092 322.147227 95.7389887 321.980471 C 94.9313585 321.892461 93.9607854 321.320395 93.4743181 320.33144 C 93.228723 319.845068 93.0917565 319.252159 93.1555168 318.647668 C 93.2169156 318.052442 93.4129194 317.538278 93.5451629 317.068119 C 94.3339011 315.196747 92.1117375 314.682583 91.0396202 315.222224 C 89.8612359 315.706279 89.1244505 316.276029 89.0087374 316.113905" stroke-linecap="round" />
</g>
		<g transform="matrix(1.17 0 0 1.17 -105.65 100.59)"  >
<path style="stroke: none; stroke-width: 1; stroke-dasharray: none; stroke-linecap: butt; stroke-dashoffset: 0; stroke-linejoin: miter; stroke-miterlimit: 4; fill: rgb(252,242,252); fill-rule: evenodd; opacity: 1;" vector-effect="non-scaling-stroke"  transform=" translate(-93.5, -295)" d="M 89.0087384 293.114659 C 88.9308091 293.012766 89.3653236 292.257829 90.6665055 291.451945 C 91.3064698 291.074476 92.3903945 290.775744 93.4625117 291.227316 C 93.9867629 291.433419 94.5440749 291.875729 94.7755011 292.540351 C 95.0140118 293.193395 94.8841297 293.871912 94.7306328 294.395273 C 94.3669631 295.481363 94.1756822 296.164512 94.5039296 296.863871 C 94.7896701 297.549335 95.3540666 297.984697 95.9161016 298.1468 C 97.094486 298.48027 97.8973932 297.970803 97.9847684 298.13059 C 98.1146504 298.193116 97.4180104 299.147208 95.7366283 298.980473 C 94.9289981 298.890159 93.9607865 298.318166 93.4743192 297.331654 C 93.2287241 296.845345 93.0917575 296.252511 93.1531563 295.645782 C 93.2145551 295.052948 93.4129204 294.53885 93.5451639 294.068751 C 94.3339022 292.197619 92.1117385 291.683521 91.0396212 292.223092 C 89.8588754 292.707086 89.1244514 293.276762 89.0087384 293.114659" stroke-linecap="round" />
</g>
		<g transform="matrix(1.17 0 0 1.17 -83.93 128.17)"  >
<path style="stroke: none; stroke-width: 1; stroke-dasharray: none; stroke-linecap: butt; stroke-dashoffset: 0; stroke-linejoin: miter; stroke-miterlimit: 4; fill: rgb(252,242,252); fill-rule: evenodd; opacity: 1;" vector-effect="non-scaling-stroke"  transform=" translate(-112, -318.5)" d="M 110.504936 322.988258 C 110.40587 323.071762 109.581926 322.721948 108.62992 321.550636 C 108.180496 320.97288 107.774565 319.966319 108.144253 318.90785 C 108.313391 318.393286 108.724154 317.824556 109.393458 317.546962 C 110.05068 317.264855 110.765892 317.330304 111.324047 317.434119 C 112.486267 317.684631 113.213561 317.808758 113.911859 317.438633 C 114.598076 317.109131 114.999175 316.533631 115.117572 315.982957 C 115.361614 314.834214 114.757549 314.114275 114.917022 314.01723 C 114.972596 313.888588 116.026084 314.470859 115.999506 316.082259 C 115.980175 316.858619 115.472761 317.831327 114.489345 318.379745 C 114.006093 318.655082 113.404445 318.835631 112.766553 318.826603 C 112.143159 318.817576 111.592252 318.675394 111.092087 318.589633 C 109.074512 317.996078 108.741068 320.155895 109.395874 321.13086 C 110.004771 322.211897 110.661993 322.86413 110.504936 322.988258" stroke-linecap="round" />
</g>
		<g transform="matrix(1.17 0 0 1.17 -72.79 158.69)"  >
<path style="stroke: none; stroke-width: 1; stroke-dasharray: none; stroke-linecap: butt; stroke-dashoffset: 0; stroke-linejoin: miter; stroke-miterlimit: 4; fill: rgb(252,242,252); fill-rule: evenodd; opacity: 1;" vector-effect="non-scaling-stroke"  transform=" translate(-121.5, -344.5)" d="M 125.993464 346.956655 C 126.065183 347.072613 125.553261 347.859111 124.131257 348.630484 C 123.431383 348.990962 122.276469 349.227919 121.193272 348.658213 C 120.661566 348.388484 120.115022 347.866673 119.922124 347.125551 C 119.726753 346.397032 119.917178 345.673555 120.119968 345.118974 C 120.582429 343.964435 120.83468 343.238438 120.550279 342.454461 C 120.302974 341.68813 119.749011 341.171361 119.17279 340.952049 C 117.970887 340.495779 117.092954 340.98734 117.013816 340.808362 C 116.882745 340.727695 117.684013 339.747094 119.427514 340.062197 C 120.263405 340.221009 121.230368 340.916757 121.660679 342.028441 C 121.878308 342.57546 121.97723 343.228354 121.863469 343.881248 C 121.752182 344.521538 121.504877 345.066036 121.32929 345.562639 C 120.357381 347.533924 122.640007 348.267485 123.802341 347.76584 C 125.071016 347.332258 125.88465 346.772635 125.993464 346.956655" stroke-linecap="round" />
</g>
		<g transform="matrix(1.17 0 0 1.17 -49.31 114.08)"  >
<path style="stroke: none; stroke-width: 1; stroke-dasharray: none; stroke-linecap: butt; stroke-dashoffset: 0; stroke-linejoin: miter; stroke-miterlimit: 4; fill: rgb(252,242,252); fill-rule: evenodd; opacity: 1;" vector-effect="non-scaling-stroke"  transform=" translate(-141.5, -306.5)" d="M 145.993064 308.956655 C 146.067253 309.072613 145.552879 309.859111 144.130933 310.630484 C 143.431088 310.990962 142.27622 311.227919 141.193068 310.658213 C 140.661384 310.388484 140.114862 309.866673 139.921971 309.125551 C 139.726608 308.399553 139.917026 307.673555 140.119807 307.118974 C 140.582249 305.964435 140.83449 305.238438 140.550101 304.454461 C 140.302806 303.68813 139.748865 303.171361 139.172667 302.952049 C 137.970814 302.495779 137.092916 302.989861 137.013782 302.808362 C 136.882716 302.727695 137.686424 301.747094 139.427381 302.062197 C 140.263239 302.221009 141.230162 302.916757 141.660455 304.028441 C 141.878075 304.57546 141.976993 305.228354 141.863237 305.881248 C 141.751955 306.521538 141.50466 307.066036 141.32908 307.562639 C 140.357211 309.533924 142.639744 310.267485 143.80203 309.76584 C 145.070654 309.332258 145.884254 308.772635 145.993064 308.956655" stroke-linecap="round" />
</g>
		<g transform="matrix(1.17 0 0 1.17 -31.1 115.85)"  >
<path style="stroke: none; stroke-width: 1; stroke-dasharray: none; stroke-linecap: butt; stroke-dashoffset: 0; stroke-linejoin: miter; stroke-miterlimit: 4; fill: rgb(252,242,252); fill-rule: evenodd; opacity: 1;" vector-effect="non-scaling-stroke"  transform=" translate(-157, -308)" d="M 157.518128 303.022669 C 157.606407 302.9218 158.58016 303.132921 159.872255 304.15803 C 160.484863 304.669412 161.145624 305.626493 160.97174 306.773583 C 160.899511 307.331881 160.575818 307.98401 159.907032 308.387485 C 159.251622 308.790961 158.459779 308.849605 157.828444 308.844914 C 156.509598 308.793306 155.691004 308.797998 155.011517 309.299997 C 154.33738 309.759771 154.024388 310.416592 154.013688 311.000693 C 154.000312 312.218156 154.813556 312.846828 154.661073 312.9735 C 154.628971 313.116593 153.355602 312.708426 153.031909 311.054646 C 152.887452 310.259424 153.227195 309.17567 154.179547 308.443784 C 154.645022 308.07315 155.26298 307.782272 155.958518 307.676712 C 156.638005 307.575843 157.269339 307.625104 157.833795 307.625104 C 160.155821 307.871412 160.054165 305.605381 159.128565 304.725711 C 158.229716 303.728751 157.370995 303.177491 157.518128 303.022669" stroke-linecap="round" />
</g>
		<g transform="matrix(1.17 0 0 1.17 -96.26 182.17)"  >
<path style="stroke: none; stroke-width: 1; stroke-dasharray: none; stroke-linecap: butt; stroke-dashoffset: 0; stroke-linejoin: miter; stroke-miterlimit: 4; fill: rgb(252,242,252); fill-rule: evenodd; opacity: 1;" vector-effect="non-scaling-stroke"  transform=" translate(-101.5, -364.5)" d="M 105.993464 366.956684 C 106.065183 367.07264 105.553261 367.859127 104.131257 368.630489 C 103.431384 368.990962 102.276469 369.227916 101.193273 368.658217 C 100.661567 368.388493 100.115023 367.864168 99.9221249 367.125577 C 99.7267539 366.397068 99.9147057 365.673601 100.117496 365.119027 C 100.582429 363.964505 100.834681 363.238517 100.547807 362.454551 C 100.302975 361.68823 99.7490113 361.171468 99.1727905 360.952159 C 97.9684149 360.495896 97.0904819 360.98745 97.0138173 360.808474 C 96.8827456 360.725288 97.684014 359.747221 99.4250417 360.06232 C 100.263406 360.218609 101.230369 360.916868 101.660679 362.028537 C 101.878308 362.575549 101.974757 363.228434 101.86347 363.881319 C 101.752182 364.521599 101.504877 365.06609 101.329291 365.562686 C 100.357382 367.533945 102.640008 368.267495 103.799868 367.765857 C 105.071016 367.332281 105.88465 366.772666 105.993464 366.956684" stroke-linecap="round" />
</g>
		<g transform="matrix(1.17 0 0 1.17 -55.76 135.21)"  >
<path style="stroke: none; stroke-width: 1; stroke-dasharray: none; stroke-linecap: butt; stroke-dashoffset: 0; stroke-linejoin: miter; stroke-miterlimit: 4; fill: rgb(252,242,252); fill-rule: evenodd; opacity: 1;" vector-effect="non-scaling-stroke"  transform=" translate(-136, -324.5)" d="M 133.985447 328.992401 C 133.882712 329.066992 133.149868 328.600198 132.396478 327.247939 C 132.042612 326.58384 131.784633 325.469791 132.257215 324.39424 C 132.478666 323.867292 132.9307 323.313876 133.592771 323.097322 C 134.243426 322.878362 134.90778 323.032356 135.419173 323.205599 C 136.478486 323.612239 137.145122 323.826387 137.846004 323.518399 C 138.528622 323.246504 138.97609 322.68587 139.151881 322.120423 C 139.517162 320.929377 139.035448 320.096847 139.197541 320.015038 C 139.266031 319.8827 140.183798 320.621389 139.966913 322.327353 C 139.855046 323.147851 139.263748 324.117532 138.275208 324.579514 C 137.788929 324.815317 137.202197 324.935624 136.604051 324.849003 C 136.021885 324.7696 135.519625 324.55064 135.063024 324.401458 C 133.241188 323.535242 132.668155 325.784997 133.168132 326.894234 C 133.608752 328.111749 134.14754 328.876906 133.985447 328.992401" stroke-linecap="round" />
</g>
		<g transform="matrix(1.17 0 0 1.17 -48.71 158.69)"  >
<path style="stroke: none; stroke-width: 1; stroke-dasharray: none; stroke-linecap: butt; stroke-dashoffset: 0; stroke-linejoin: miter; stroke-miterlimit: 4; fill: rgb(252,242,252); fill-rule: evenodd; opacity: 1;" vector-effect="non-scaling-stroke"  transform=" translate(-142, -344.5)" d="M 139.984173 348.992401 C 139.883727 349.066992 139.148645 348.600198 138.3953 347.247939 C 138.043739 346.58384 137.783492 345.469791 138.258328 344.39424 C 138.477483 343.867292 138.931773 343.313876 139.593803 343.099728 C 140.24442 342.878362 140.90645 343.032356 141.417812 343.208005 C 142.477061 343.612239 143.14594 343.828793 143.844496 343.518399 C 144.527073 343.246504 144.974514 342.688276 145.150295 342.120423 C 145.515553 340.929377 145.036151 340.096847 145.195952 340.015038 C 145.264438 339.8827 146.182149 340.621389 145.96756 342.327353 C 145.8557 343.147851 145.262155 344.117532 144.273675 344.579514 C 143.789708 344.815317 143.200729 344.935624 142.602618 344.851409 C 142.020488 344.7696 141.520541 344.55064 141.061685 344.401458 C 139.23996 343.535242 138.666961 345.784997 139.166908 346.894234 C 139.607501 348.111749 140.148539 348.879312 139.984173 348.992401" stroke-linecap="round" />
</g>
		<g transform="matrix(1.17 0 0 1.17 -92.15 152.83)"  >
<path style="stroke: none; stroke-width: 1; stroke-dasharray: none; stroke-linecap: butt; stroke-dashoffset: 0; stroke-linejoin: miter; stroke-miterlimit: 4; fill: rgb(252,242,252); fill-rule: evenodd; opacity: 1;" vector-effect="non-scaling-stroke"  transform=" translate(-105, -339.5)" d="M 100.212249 341.999105 C 100.087691 341.981712 99.8408808 341.08967 100.147663 339.50437 C 100.311434 338.739053 100.83504 337.697924 101.882252 337.220843 C 102.387405 336.977333 103.081702 336.885396 103.716026 337.205934 C 104.345737 337.514049 104.740171 338.117854 105.012354 338.624753 C 105.545187 339.708124 105.905022 340.361625 106.626998 340.637437 C 107.314375 340.928158 108.006365 340.826282 108.504598 340.520652 C 109.54489 339.879575 109.722501 338.893111 109.897805 338.945291 C 110.03159 338.895596 110.241494 340.133024 108.982071 341.280999 C 108.368507 341.82517 107.302842 342.1308 106.264857 341.76305 C 105.74817 341.589114 105.231484 341.248697 104.839357 340.749253 C 104.456455 340.259748 104.221179 339.728002 103.974369 339.275769 C 103.169354 337.285448 101.29406 338.582511 100.952678 339.795092 C 100.498272 341.049913 100.406006 342.033892 100.212249 341.999105" stroke-linecap="round" />
</g>
		<g transform="matrix(1.17 0 0 1.17 -49.9 181)"  >
<path style="stroke: none; stroke-width: 1; stroke-dasharray: none; stroke-linecap: butt; stroke-dashoffset: 0; stroke-linejoin: miter; stroke-miterlimit: 4; fill: rgb(252,242,252); fill-rule: evenodd; opacity: 1;" vector-effect="non-scaling-stroke"  transform=" translate(-141, -363.5)" d="M 136.213287 365.999105 C 136.08872 365.981712 135.839585 365.08967 136.148697 363.50437 C 136.31248 362.739053 136.836124 361.697924 137.883413 361.220843 C 138.388603 360.977333 139.082952 360.885396 139.717323 361.205934 C 140.34708 361.514049 140.741544 362.117854 141.013747 362.624753 C 141.546618 363.708124 141.90648 364.361625 142.62851 364.637437 C 143.315937 364.928158 144.007978 364.826282 144.506248 364.520652 C 145.546617 363.879575 145.724241 362.893111 145.897251 362.945291 C 146.031046 362.895596 146.243272 364.133024 144.98145 365.280999 C 144.372454 365.82517 143.302096 366.133284 142.266341 365.76305 C 141.749617 365.589114 141.232893 365.248697 140.840736 364.749253 C 140.457807 364.262233 140.222513 363.728002 139.975685 363.275769 C 139.17061 361.282963 137.295178 362.582511 136.953771 363.795092 C 136.499331 365.049913 136.407059 366.033892 136.213287 365.999105" stroke-linecap="round" />
</g>
		<g transform="matrix(1.17 0 0 1.17 -52.25 94.13)"  >
<path style="stroke: none; stroke-width: 1; stroke-dasharray: none; stroke-linecap: butt; stroke-dashoffset: 0; stroke-linejoin: miter; stroke-miterlimit: 4; fill: rgb(252,242,252); fill-rule: evenodd; opacity: 1;" vector-effect="non-scaling-stroke"  transform=" translate(-139, -289.5)" d="M 134.213287 291.999103 C 134.08872 291.984189 133.839585 291.089332 134.148697 289.503447 C 134.310173 288.737847 134.836124 287.696334 135.883413 287.219077 C 136.388603 286.977962 137.082952 286.885991 137.717323 287.204162 C 138.34708 287.512391 138.741544 288.116419 139.013747 288.62599 C 139.546618 289.709761 139.90648 290.363504 140.62851 290.636932 C 141.315937 290.930246 142.007978 290.828332 142.506248 290.522589 C 143.546617 289.881275 143.724241 288.891962 143.897251 288.944162 C 144.031046 288.894447 144.243272 290.134818 142.98145 291.280732 C 142.372454 291.827589 141.302096 292.133331 140.266341 291.76296 C 139.749617 291.58896 139.232893 291.250903 138.840736 290.748789 C 138.457807 290.261589 138.222513 289.727161 137.975685 289.277247 C 137.17061 287.283705 135.295178 288.583733 134.953771 289.796761 C 134.499331 291.052046 134.407059 292.033903 134.213287 291.999103" stroke-linecap="round" />
</g>
		<g transform="matrix(1.17 0 0 1.17 -72.78 189.8)"  >
<path style="stroke: none; stroke-width: 1; stroke-dasharray: none; stroke-linecap: butt; stroke-dashoffset: 0; stroke-linejoin: miter; stroke-miterlimit: 4; fill: rgb(252,242,252); fill-rule: evenodd; opacity: 1;" vector-effect="non-scaling-stroke"  transform=" translate(-121.5, -371)" d="M 121.76094 375.963701 C 121.689839 376.073483 120.745208 375.972849 119.389207 375.117463 C 118.741678 374.68977 117.990037 373.834384 118.000194 372.706829 C 117.992576 372.157918 118.208419 371.492363 118.782307 371.030363 C 119.346038 370.57065 120.084983 370.426561 120.679186 370.364809 C 121.928535 370.275611 122.697952 370.184125 123.269301 369.626066 C 123.843189 369.106888 124.048875 368.436759 123.980313 367.874125 C 123.827953 366.691679 122.977278 366.172501 123.104245 366.032986 C 123.114402 365.893471 124.36883 366.14963 124.897011 367.716313 C 125.143325 368.471066 124.965572 369.552878 124.170763 370.367096 C 123.779706 370.769631 123.238829 371.119561 122.598918 371.29567 C 121.971704 371.464918 121.369883 371.485502 120.841703 371.547254 C 118.61979 371.556403 119.023544 373.738324 120.013882 374.488502 C 120.994063 375.357612 121.87521 375.799027 121.76094 375.963701" stroke-linecap="round" />
</g>
		<g transform="matrix(1.17 0 0 1.17 -125.61 114.68)"  >
<path style="stroke: none; stroke-width: 1; stroke-dasharray: none; stroke-linecap: butt; stroke-dashoffset: 0; stroke-linejoin: miter; stroke-miterlimit: 4; fill: rgb(252,242,252); fill-rule: evenodd; opacity: 1;" vector-effect="non-scaling-stroke"  transform=" translate(-76.5, -307)" d="M 79.1891774 303.004601 C 79.3049077 302.945138 80.0460743 303.457438 80.7207575 304.809087 C 81.0334756 305.472332 81.1984529 306.551822 80.5828661 307.52382 C 80.292309 308.001814 79.753055 308.479808 79.0217378 308.619319 C 78.3002699 308.763403 77.6034256 308.552994 77.0715586 308.338011 C 75.9733516 307.850869 75.2789696 307.583283 74.4984055 307.807415 C 73.7375401 307.99724 73.2032107 308.482095 72.9569759 309.001257 C 72.4448077 310.089894 72.8781808 310.924669 72.6959671 310.988707 C 72.6122473 311.105346 71.6987164 310.316313 72.1025414 308.722236 C 72.3044539 307.95836 73.0357711 307.100715 74.1438274 306.759944 C 74.6880062 306.583841 75.3306789 306.526664 75.9635022 306.666175 C 76.5790891 306.798824 77.096182 307.054974 77.5738774 307.242512 C 79.4427992 308.237381 80.2824597 306.167597 79.8564735 305.069811 C 79.5043579 303.875969 79.002039 303.096083 79.1891774 303.004601" stroke-linecap="round" />
</g>
		<g transform="matrix(1.17 0 0 1.17 -76.31 106.46)"  >
<path style="stroke: none; stroke-width: 1; stroke-dasharray: none; stroke-linecap: butt; stroke-dashoffset: 0; stroke-linejoin: miter; stroke-miterlimit: 4; fill: rgb(252,242,252); fill-rule: evenodd; opacity: 1;" vector-effect="non-scaling-stroke"  transform=" translate(-118.5, -300)" d="M 121.188426 296.004923 C 121.306607 295.943174 122.045235 296.457743 122.719849 297.809342 C 123.032535 298.472563 123.199958 299.552013 122.581972 300.523975 C 122.293907 300.999664 121.752246 301.479928 121.021004 301.617146 C 120.29961 301.763512 119.602837 301.550824 119.071024 301.338136 C 117.975392 300.851011 117.281081 300.581149 116.498135 300.805272 C 115.737348 300.99509 115.203073 301.482215 114.956864 302.001357 C 114.44721 303.089955 114.878077 303.924699 114.698344 303.988734 C 114.61217 304.105369 113.698733 303.314078 114.102517 301.722347 C 114.304408 300.958499 115.038113 300.100885 116.143593 299.760127 C 116.687716 299.581743 117.332785 299.526856 117.963082 299.666361 C 118.581067 299.799005 119.095645 300.055146 119.573292 300.242677 C 121.444484 301.237509 122.281596 299.167802 121.855654 298.067769 C 121.503574 296.873971 121.001307 296.096401 121.188426 296.004923" stroke-linecap="round" />
</g>
		<g transform="matrix(1.17 0 0 1.17 -109.78 122.22)"  >
<path style="stroke: none; stroke-width: 1; stroke-dasharray: none; stroke-linecap: butt; stroke-dashoffset: 0; stroke-linejoin: miter; stroke-miterlimit: 4; fill: rgb(36,19,82); fill-rule: evenodd; opacity: 1;" vector-effect="non-scaling-stroke"  transform=" translate(-90, -313.5)" d="M 96.4702872 338 C 96.3777576 337.990247 96.3931792 337.105171 96.4985601 335.509133 C 96.603941 333.915513 96.7992812 331.608512 97.069159 328.767081 C 97.6063445 323.081799 98.4545321 315.224938 99.4466545 306.579731 C 99.6754081 304.432334 99.7910701 302.342975 99.4774977 300.393874 C 99.1870577 298.442355 98.3825646 296.689131 97.2130939 295.264788 C 94.8535903 292.389501 91.5045345 290.895028 88.6566804 290.254195 C 85.7702724 289.60127 83.3105284 289.632707 81.6347154 289.678654 C 79.9511916 289.734273 79.015615 289.831003 79 289.734273 C 78.9847718 289.661726 79.8920755 289.398138 81.5910209 289.187751 C 83.2848258 288.994292 85.8036859 288.815342 88.8648719 289.383629 C 91.8797932 289.947079 95.5347106 291.434296 98.1846542 294.551407 C 99.5032003 296.091826 100.443917 298.084455 100.775482 300.205251 C 101.132749 302.326048 101.009376 304.519391 100.780622 306.703061 C 99.7833593 315.377287 98.7886666 323.197875 98.0098762 328.86381 C 97.6191958 331.695569 97.2799208 333.983224 97.0151834 335.562334 C 96.7530164 337.143863 96.5628167 338.009593 96.4702872 338" stroke-linecap="round" />
</g>
		<g transform="matrix(1.17 0 0 1.17 -123.32 152.25)"  >
<path style="stroke: none; stroke-width: 1; stroke-dasharray: none; stroke-linecap: butt; stroke-dashoffset: 0; stroke-linejoin: miter; stroke-miterlimit: 4; fill: rgb(36,19,82); fill-rule: evenodd; opacity: 1;" vector-effect="non-scaling-stroke"  transform=" translate(-78.5, -339)" d="M 97 337.095273 C 97.0361058 337.433453 88.7817368 338.556024 78.5664117 339.608141 C 68.3486717 340.662607 60.0363434 341.240332 60 340.9045 C 59.9638943 340.568668 68.2158483 339.443748 78.4360033 338.39398 C 88.6489134 337.339514 96.9636567 336.759441 97 337.095273" stroke-linecap="round" />
</g>
		<g transform="matrix(1.17 0 0 1.17 18.15 153.97)"  >
<path style="stroke: none; stroke-width: 1; stroke-dasharray: none; stroke-linecap: butt; stroke-dashoffset: 0; stroke-linejoin: miter; stroke-miterlimit: 4; fill: rgb(35,129,116); fill-rule: evenodd; opacity: 1;" vector-effect="non-scaling-stroke"  transform=" translate(-199, -340.5)" d="M 187.726025 351.082789 C 188.044953 348.891368 187.983145 346.804786 189.169853 344.87163 C 191.535852 341.020661 194.893246 341.987239 198.14433 343.682586 C 201.457223 345.408618 204.574803 346.444237 208.176955 344.830717 C 213.801455 342.311988 216.44188 333.53863 211.0745 329.411496 C 209.336467 328.07414 207.623158 330.280904 207.858027 331.96858 C 208.1819 334.331327 209.314217 336.929325 207.358621 338.957093 C 204.745392 341.667603 201.67973 339.391798 199.071446 338.174625 C 196.255487 336.860284 193.25905 336.568776 190.351616 337.785948 C 185.347665 339.877644 181.718318 346.896841 185.691316 351.637677 C 186.25253 352.307633 187.592521 352.005897 187.726025 351.082789" stroke-linecap="round" />
</g>
		<g transform="matrix(1.17 0 0 1.17 56.91 80.01)"  >
<path style="stroke: none; stroke-width: 1; stroke-dasharray: none; stroke-linecap: butt; stroke-dashoffset: 0; stroke-linejoin: miter; stroke-miterlimit: 4; fill: rgb(255,112,129); fill-rule: evenodd; opacity: 1;" vector-effect="non-scaling-stroke"  transform=" translate(-232, -277.5)" d="M 224.978338 270.753807 C 220.902685 274.573005 219.35487 280.515666 223.241259 285.104271 C 226.896902 289.424595 233.977441 290.340798 238.545698 286.89618 C 249.577442 278.587085 238.07902 263.252084 226.176144 266.42589 C 223.972388 267.013069 224.52203 270.078045 226.69986 270.19953 C 230.179202 270.394413 233.904847 270.523491 236.684172 272.905111 C 239.67091 275.461367 239.735726 279.786753 237.288261 282.727712 C 230.798847 290.517964 219.528578 279.047717 226.344666 272.085085 C 227.202835 271.209378 225.877989 269.911002 224.978338 270.753807" stroke-linecap="round" />
</g>
		<g transform="matrix(1.17 0 0 1.17 -134.44 71.79)"  >
<path style="stroke: none; stroke-width: 1; stroke-dasharray: none; stroke-linecap: butt; stroke-dashoffset: 0; stroke-linejoin: miter; stroke-miterlimit: 4; fill: rgb(124,171,255); fill-rule: evenodd; opacity: 1;" vector-effect="non-scaling-stroke"  transform=" translate(-69, -270.5)" d="M 61.9777251 263.754155 C 57.9045267 267.573173 56.3540667 273.515555 60.2405876 278.103944 C 63.8989473 282.424065 70.9771342 283.340224 75.5455465 279.8983 C 86.5776657 271.587065 75.0788528 256.250254 63.1755721 259.426441 C 60.971741 260.013593 61.5214024 263.078425 63.6993061 263.199904 C 67.1787665 263.394778 70.9045374 263.52385 73.6865501 265.905358 C 76.6707967 268.461493 76.7356153 272.789207 74.2880664 275.727497 C 67.798432 283.517382 56.5277804 272.047675 63.3441004 265.08537 C 64.2022981 264.209704 62.8774067 262.91139 61.9777251 263.754155" stroke-linecap="round" />
</g>
		<g transform="matrix(1.17 0 0 1.17 -185.54 189.16)"  >
<path style="stroke: none; stroke-width: 1; stroke-dasharray: none; stroke-linecap: butt; stroke-dashoffset: 0; stroke-linejoin: miter; stroke-miterlimit: 4; fill: rgb(255,112,129); fill-rule: evenodd; opacity: 1;" vector-effect="non-scaling-stroke"  transform=" translate(-25.5, -370.5)" d="M 7.06185636 357.038104 C 9.65187038 366.963508 12.5028008 376.772782 15.4662364 386.586998 C 16.1795674 388.946659 18.3411041 389.687914 20.3087488 388.30918 C 28.0357037 382.893077 35.7650524 377.565925 43.0826798 371.566701 C 44.4925857 370.410343 44.1837948 368.085274 42.7930387 367.099405 C 34.2210976 361.026056 22.6450276 352.064283 11.7703199 352 C 9.00317001 351.985216 7.06903755 356.002818 9.87448711 357.673112 C 14.2645848 360.284801 19.5236059 361.216311 24.2129196 363.230054 C 29.6227456 365.550182 34.9799095 368.275529 39.7577912 371.79649 C 39.8631152 370.165729 39.970833 368.53991 40.076157 366.91162 C 31.8967874 372.110288 24.1937698 377.939023 16.4141528 383.750462 L 21.0077174 384.696797 C 17.6876163 375.003653 14.2813409 365.382164 10.6021805 355.832329 C 9.82421882 353.813645 6.50890513 354.920585 7.06185636 357.038104" stroke-linecap="round" />
</g>
		<g transform="matrix(1.17 0 0 1.17 75.68 124.08)"  >
<path style="stroke: none; stroke-width: 1; stroke-dasharray: none; stroke-linecap: butt; stroke-dashoffset: 0; stroke-linejoin: miter; stroke-miterlimit: 4; fill: rgb(251,197,128); fill-rule: evenodd; opacity: 1;" vector-effect="non-scaling-stroke"  transform=" translate(-248, -315)" d="M 236.949841 315.70282 C 243.858623 316.573048 251.141651 317.179772 258.114448 316.951697 C 260.67508 316.867552 260.581519 313.66343 258.114448 313.435355 C 251.309077 312.79763 244.11961 312.932704 237.299465 313.377782 C 235.930512 313.466355 235.386378 315.503531 236.949841 315.70282" stroke-linecap="round" />
</g>
		<g transform="matrix(1.17 0 0 1.17 -196.66 124.08)"  >
<path style="stroke: none; stroke-width: 1; stroke-dasharray: none; stroke-linecap: butt; stroke-dashoffset: 0; stroke-linejoin: miter; stroke-miterlimit: 4; fill: rgb(251,197,128); fill-rule: evenodd; opacity: 1;" vector-effect="non-scaling-stroke"  transform=" translate(-16, -315)" d="M 4.94980385 315.70282 C 11.8583175 316.573048 19.1410628 317.179772 26.1135898 316.951697 C 28.6765843 316.867552 28.5805643 313.66343 26.1135898 313.435355 C 19.3084822 312.79763 12.1192948 312.932704 5.29941502 313.377782 C 3.93051495 313.466355 3.3864018 315.503531 4.94980385 315.70282" stroke-linecap="round" />
</g>
		<g transform="matrix(1.17 0 0 1.17 -159.06 114.68)"  >
<path style="stroke: none; stroke-width: 1; stroke-dasharray: none; stroke-linecap: butt; stroke-dashoffset: 0; stroke-linejoin: miter; stroke-miterlimit: 4; fill: rgb(36,19,82); fill-rule: evenodd; opacity: 1;" vector-effect="non-scaling-stroke"  transform=" translate(-48, -307)" d="M 50.8818952 304.401176 C 50.7675509 304.29898 50.6532066 304.199161 50.5388624 304.099342 C 49.0309472 302.768418 46.5582522 302.50461 45.090834 304.099342 C 43.6091227 305.71071 43.6639127 307.920994 45.090834 309.534738 L 45.395752 309.876976 C 46.7440616 311.395655 49.5240569 311.352875 50.8818952 309.876976 C 52.232587 308.408207 52.5065368 305.834296 50.8818952 304.401176" stroke-linecap="round" />
</g>
		<g transform="matrix(1.17 0 0 1.17 -41.66 135.18)"  >
<path style="stroke: none; stroke-width: 1; stroke-dasharray: none; stroke-linecap: butt; stroke-dashoffset: 0; stroke-linejoin: miter; stroke-miterlimit: 4; fill: rgb(36,19,82); fill-rule: evenodd; opacity: 1;" vector-effect="non-scaling-stroke"  transform=" translate(-148, -324.5)" d="M 148.482422 338 C 148.224422 337.982902 147.986422 331.983193 147.480422 324.546283 C 146.972422 317.097193 147.200422 310.980559 147.518422 311 C 147.776422 311.014662 148.012422 317.014371 148.520422 324.453717 C 149.026422 331.900372 148.800422 338.019441 148.482422 338" stroke-linecap="round" />
</g>
		<g transform="matrix(1.17 0 0 1.17 18.18 83.56)"  >
<polygon style="stroke: none; stroke-width: 1; stroke-dasharray: none; stroke-linecap: butt; stroke-dashoffset: 0; stroke-linejoin: miter; stroke-miterlimit: 4; fill: rgb(36,19,82); fill-rule: evenodd; opacity: 1;" vector-effect="non-scaling-stroke"  points="-10,0.62 8.88,-4.5 10,-1.19 -9.05,4.5 " />
</g>
		<g transform="matrix(1.17 0 0 1.17 17.03 82.99)"  >
<path style="stroke: none; stroke-width: 1; stroke-dasharray: none; stroke-linecap: butt; stroke-dashoffset: 0; stroke-linejoin: miter; stroke-miterlimit: 4; fill: rgb(230,226,235); fill-rule: evenodd; opacity: 1;" vector-effect="non-scaling-stroke"  transform=" translate(-198, -280)" d="M 200 280.001085 C 200 281.105806 199.103635 282 198.001085 282 C 196.896365 282 196 281.105806 196 280.001085 C 196 278.896365 196.896365 278 198.001085 278 C 199.103635 278 200 278.896365 200 280.001085" stroke-linecap="round" />
</g>
		<g transform="matrix(1.17 0 0 1.17 -68.66 23.12)"  >
<path style="stroke: none; stroke-width: 1; stroke-dasharray: none; stroke-linecap: butt; stroke-dashoffset: 0; stroke-linejoin: miter; stroke-miterlimit: 4; fill: rgb(36,19,82); fill-rule: evenodd; opacity: 1;" vector-effect="non-scaling-stroke"  transform=" translate(-125, -229)" d="M 125.805627 229.96008 C 125.567627 230.103552 125.081627 229.851985 124.609627 229.339025 C 124.141627 228.831961 123.939627 228.195183 124.195627 228.03992 C 124.431627 227.896448 124.919627 228.148015 125.391627 228.660975 C 125.857627 229.168039 126.059627 229.804817 125.805627 229.96008" stroke-linecap="round" />
</g>
		<g transform="matrix(1.17 0 0 1.17 -86.27 25.47)"  >
<path style="stroke: none; stroke-width: 1; stroke-dasharray: none; stroke-linecap: butt; stroke-dashoffset: 0; stroke-linejoin: miter; stroke-miterlimit: 4; fill: rgb(36,19,82); fill-rule: evenodd; opacity: 1;" vector-effect="non-scaling-stroke"  transform=" translate(-110, -231)" d="M 110.805653 231.96008 C 110.567653 232.103552 110.081653 231.851985 109.609653 231.339025 C 109.141653 230.831961 108.939653 230.195183 109.195653 230.03992 C 109.431653 229.896448 109.919653 230.148015 110.389653 230.660975 C 110.857653 231.168039 111.059653 231.804817 110.805653 231.96008" stroke-linecap="round" />
</g>
		<g transform="matrix(1.17 0 0 1.17 -160.4 -35.67)"  >
<polygon style="stroke: none; stroke-width: 1; stroke-dasharray: none; stroke-linecap: butt; stroke-dashoffset: 0; stroke-linejoin: miter; stroke-miterlimit: 4; fill: rgb(251,197,128); fill-rule: evenodd; opacity: 1;" vector-effect="non-scaling-stroke"  points="47,-24.26 47,12.9 22.4,12.9 21.62,27 7.16,12.09 -47,12.09 -42.23,-27 " />
</g>
		<g transform="matrix(1.17 0 0 1.17 -159.19 -49.66)"  >
<path style="stroke: none; stroke-width: 1; stroke-dasharray: none; stroke-linecap: butt; stroke-dashoffset: 0; stroke-linejoin: miter; stroke-miterlimit: 4; fill: rgb(230,226,235); fill-rule: evenodd; opacity: 1;" vector-effect="non-scaling-stroke"  transform=" translate(-48, -167)" d="M 83.8002138 166.831 C 60.0311593 166.439 36.1056973 166.301 12.3390866 166.713 C 11.8869711 166.721 11.8869711 167.279 12.3390866 167.287 C 36.1056973 167.699 60.0311593 167.561 83.8002138 167.169 C 84.0665954 167.165 84.0665954 166.835 83.8002138 166.831" stroke-linecap="round" />
</g>
		<g transform="matrix(1.17 0 0 1.17 -159.19 -41.44)"  >
<path style="stroke: none; stroke-width: 1; stroke-dasharray: none; stroke-linecap: butt; stroke-dashoffset: 0; stroke-linejoin: miter; stroke-miterlimit: 4; fill: rgb(230,226,235); fill-rule: evenodd; opacity: 1;" vector-effect="non-scaling-stroke"  transform=" translate(-48, -174)" d="M 83.8002138 173.831 C 60.0311593 173.439 36.1056973 173.301 12.3390866 173.713 C 11.8869711 173.721 11.8869711 174.279 12.3390866 174.287 C 36.1056973 174.699 60.0311593 174.561 83.8002138 174.169 C 84.0665954 174.165 84.0665954 173.835 83.8002138 173.831" stroke-linecap="round" />
</g>
		<g transform="matrix(1.17 0 0 1.17 -143.87 -33.22)"  >
<path style="stroke: none; stroke-width: 1; stroke-dasharray: none; stroke-linecap: butt; stroke-dashoffset: 0; stroke-linejoin: miter; stroke-miterlimit: 4; fill: rgb(230,226,235); fill-rule: evenodd; opacity: 1;" vector-effect="non-scaling-stroke"  transform=" translate(-61, -181)" d="M 82.8022703 180.830578 C 68.391584 180.456578 53.7462826 180.344578 39.3355963 180.712578 C 38.8881346 180.724578 38.8881346 181.274578 39.3355963 181.286578 C 53.7462826 181.656578 68.391584 181.542578 82.8022703 181.168578 C 83.0659099 181.162578 83.0659099 180.836578 82.8022703 180.830578" stroke-linecap="round" />
</g>
</g>
</g>
</svg>